<svg width="496" height="248" viewBox="0 0 496 248" fill="none" xmlns="http://www.w3.org/2000/svg">
<g clip-path="url(#clip0_8_178672)">
<rect width="496" height="248" fill="white"/>
<g clip-path="url(#clip1_8_178672)">
<path d="M17.148 29V19.228H20.704C23.252 19.228 24.918 20.866 24.918 24.114C24.918 27.362 23.252 29 20.704 29H17.148ZM18.996 27.362H20.704C22.076 27.362 22.958 26.55 22.958 24.884V23.344C22.958 21.678 22.076 20.866 20.704 20.866H18.996V27.362ZM28.6543 29.168C27.1703 29.168 26.3303 28.314 26.3303 27.012C26.3303 25.514 27.4643 24.772 29.4523 24.772H30.6983V24.24C30.6983 23.428 30.2923 22.952 29.3403 22.952C28.5003 22.952 28.0243 23.372 27.6743 23.876L26.6103 22.924C27.1423 22.084 27.9963 21.524 29.4663 21.524C31.4403 21.524 32.4903 22.462 32.4903 24.128V27.572H33.2183V29H32.2243C31.4543 29 30.9783 28.496 30.8663 27.74H30.7823C30.5443 28.678 29.7463 29.168 28.6543 29.168ZM29.2563 27.866C30.0543 27.866 30.6983 27.502 30.6983 26.816V25.85H29.5503C28.6123 25.85 28.1503 26.172 28.1503 26.746V26.984C28.1503 27.572 28.5563 27.866 29.2563 27.866ZM37.056 29C35.824 29 35.166 28.328 35.166 27.138V23.12H34.088V21.692H34.648C35.18 21.692 35.348 21.44 35.348 20.936V19.69H36.958V21.692H38.456V23.12H36.958V27.572H38.344V29H37.056ZM41.9763 29.168C40.4923 29.168 39.6523 28.314 39.6523 27.012C39.6523 25.514 40.7863 24.772 42.7743 24.772H44.0203V24.24C44.0203 23.428 43.6143 22.952 42.6623 22.952C41.8223 22.952 41.3463 23.372 40.9963 23.876L39.9323 22.924C40.4643 22.084 41.3183 21.524 42.7883 21.524C44.7623 21.524 45.8123 22.462 45.8123 24.128V27.572H46.5403V29H45.5463C44.7763 29 44.3003 28.496 44.1883 27.74H44.1043C43.8663 28.678 43.0683 29.168 41.9763 29.168ZM42.5783 27.866C43.3763 27.866 44.0203 27.502 44.0203 26.816V25.85H42.8723C41.9343 25.85 41.4723 26.172 41.4723 26.746V26.984C41.4723 27.572 41.8783 27.866 42.5783 27.866ZM48.1506 29V18.64H49.9426V22.896H49.9986C50.2646 22.056 51.0486 21.524 52.0146 21.524C53.8626 21.524 54.8846 22.896 54.8846 25.332C54.8846 27.782 53.8626 29.168 52.0146 29.168C51.0486 29.168 50.2786 28.608 49.9986 27.782H49.9426V29H48.1506ZM51.4406 27.684C52.3646 27.684 53.0086 27.012 53.0086 25.976V24.716C53.0086 23.68 52.3646 22.994 51.4406 22.994C50.5866 22.994 49.9426 23.456 49.9426 24.17V26.494C49.9426 27.25 50.5866 27.684 51.4406 27.684ZM58.5111 29.168C57.0271 29.168 56.1871 28.314 56.1871 27.012C56.1871 25.514 57.3211 24.772 59.3091 24.772H60.5551V24.24C60.5551 23.428 60.1491 22.952 59.1971 22.952C58.3571 22.952 57.8811 23.372 57.5311 23.876L56.4671 22.924C56.9991 22.084 57.8531 21.524 59.3231 21.524C61.2971 21.524 62.3471 22.462 62.3471 24.128V27.572H63.0751V29H62.0811C61.3111 29 60.8351 28.496 60.7231 27.74H60.6391C60.4011 28.678 59.6031 29.168 58.5111 29.168ZM59.1131 27.866C59.9111 27.866 60.5551 27.502 60.5551 26.816V25.85H59.4071C58.4691 25.85 58.0071 26.172 58.0071 26.746V26.984C58.0071 27.572 58.4131 27.866 59.1131 27.866ZM67.0795 29.168C65.6935 29.168 64.7835 28.664 64.0555 27.824L65.1475 26.76C65.6795 27.376 66.3235 27.754 67.1495 27.754C68.0035 27.754 68.3675 27.432 68.3675 26.914C68.3675 26.494 68.1155 26.228 67.4715 26.144L66.7435 26.046C65.1755 25.85 64.3075 25.164 64.3075 23.834C64.3075 22.42 65.4135 21.524 67.0795 21.524C68.5075 21.524 69.2355 21.944 69.9355 22.672L68.8855 23.722C68.4655 23.274 67.8495 22.938 67.1355 22.938C66.3655 22.938 66.0295 23.246 66.0295 23.694C66.0295 24.184 66.2955 24.408 66.9815 24.52L67.7235 24.618C69.3195 24.842 70.0895 25.556 70.0895 26.774C70.0895 28.188 68.8995 29.168 67.0795 29.168ZM74.7858 29.168C72.6298 29.168 71.3418 27.67 71.3418 25.332C71.3418 23.022 72.5878 21.524 74.7298 21.524C77.0118 21.524 78.0618 23.204 78.0618 25.206V25.794H73.2038V25.976C73.2038 27.026 73.8058 27.74 74.9818 27.74C75.8638 27.74 76.3958 27.32 76.8438 26.746L77.8098 27.824C77.2078 28.65 76.1438 29.168 74.7858 29.168ZM74.7578 22.868C73.8198 22.868 73.2038 23.568 73.2038 24.576V24.688H76.1998V24.562C76.1998 23.554 75.6818 22.868 74.7578 22.868ZM87.747 29H85.647L82.455 19.228H84.345L85.843 23.988L86.711 27.236H86.753L87.607 23.988L89.105 19.228H90.939L87.747 29ZM94.8302 29.168C92.6742 29.168 91.3862 27.67 91.3862 25.332C91.3862 23.022 92.6322 21.524 94.7742 21.524C97.0562 21.524 98.1062 23.204 98.1062 25.206V25.794H93.2482V25.976C93.2482 27.026 93.8502 27.74 95.0262 27.74C95.9082 27.74 96.4402 27.32 96.8882 26.746L97.8542 27.824C97.2522 28.65 96.1882 29.168 94.8302 29.168ZM94.8022 22.868C93.8642 22.868 93.2482 23.568 93.2482 24.576V24.688H96.2442V24.562C96.2442 23.554 95.7262 22.868 94.8022 22.868ZM101.635 29H99.8429V21.692H101.635V23.204H101.705C101.887 22.434 102.475 21.692 103.637 21.692H104.029V23.386H103.469C102.265 23.386 101.635 23.722 101.635 24.52V29ZM107.893 29.168C106.507 29.168 105.597 28.664 104.869 27.824L105.961 26.76C106.493 27.376 107.137 27.754 107.963 27.754C108.817 27.754 109.181 27.432 109.181 26.914C109.181 26.494 108.929 26.228 108.285 26.144L107.557 26.046C105.989 25.85 105.121 25.164 105.121 23.834C105.121 22.42 106.227 21.524 107.893 21.524C109.321 21.524 110.049 21.944 110.749 22.672L109.699 23.722C109.279 23.274 108.663 22.938 107.949 22.938C107.179 22.938 106.843 23.246 106.843 23.694C106.843 24.184 107.109 24.408 107.795 24.52L108.537 24.618C110.133 24.842 110.903 25.556 110.903 26.774C110.903 28.188 109.713 29.168 107.893 29.168ZM113.541 20.628C112.799 20.628 112.491 20.25 112.491 19.732V19.452C112.491 18.934 112.799 18.556 113.541 18.556C114.269 18.556 114.591 18.934 114.591 19.452V19.732C114.591 20.25 114.269 20.628 113.541 20.628ZM112.645 29V21.692H114.437V29H112.645ZM119.572 29.168C117.486 29.168 116.184 27.684 116.184 25.332C116.184 22.994 117.486 21.524 119.572 21.524C121.672 21.524 122.974 22.994 122.974 25.332C122.974 27.684 121.672 29.168 119.572 29.168ZM119.572 27.726C120.51 27.726 121.098 27.124 121.098 26.018V24.66C121.098 23.568 120.51 22.966 119.572 22.966C118.648 22.966 118.06 23.568 118.06 24.66V26.018C118.06 27.124 118.648 27.726 119.572 27.726ZM126.515 29H124.723V21.692H126.515V22.91H126.585C126.879 22.126 127.495 21.524 128.629 21.524C130.127 21.524 130.967 22.56 130.967 24.38V29H129.175V24.562C129.175 23.526 128.825 22.994 127.971 22.994C127.229 22.994 126.515 23.386 126.515 24.17V29Z" fill="#161616"/>
<rect width="100" height="48" transform="translate(396)" fill="white" style="mix-blend-mode:multiply"/>
<path d="M419.266 29H413.302V19.228H419.266V20.264H414.478V23.54H418.986V24.576H414.478V27.964H419.266V29ZM425.995 29V27.824H425.939C425.505 28.72 424.819 29.168 423.825 29.168C422.019 29.168 420.885 27.698 420.885 25.388C420.885 23.078 422.019 21.608 423.825 21.608C424.819 21.608 425.561 22.042 425.939 22.952H425.995V18.64H427.115V29H425.995ZM424.133 28.16C425.155 28.16 425.995 27.628 425.995 26.69V24.002C425.995 23.204 425.155 22.616 424.133 22.616C422.873 22.616 422.089 23.484 422.089 24.772V26.004C422.089 27.292 422.873 28.16 424.133 28.16ZM430.216 20.082C429.74 20.082 429.53 19.83 429.53 19.452V19.27C429.53 18.892 429.74 18.64 430.216 18.64C430.692 18.64 430.902 18.892 430.902 19.27V19.452C430.902 19.83 430.692 20.082 430.216 20.082ZM429.656 29V21.776H430.776V29H429.656ZM436.312 29H434.912C434.142 29 433.722 28.51 433.722 27.81V22.756H432.532V21.776H433.204C433.68 21.776 433.834 21.608 433.834 21.118V19.774H434.842V21.776H436.424V22.756H434.842V28.02H436.312V29Z" fill="#0F62FE"/>
<rect width="16" height="16" transform="translate(464 16)" fill="white" style="mix-blend-mode:multiply"/>
<path d="M479 29H465V30H479V29Z" fill="#0F62FE"/>
<path d="M476.7 20.5C477.1 20.1 477.1 19.5 476.7 19.1L474.9 17.3C474.5 16.9 473.9 16.9 473.5 17.3L466 24.8V28H469.2L476.7 20.5ZM474.2 18L476 19.8L474.5 21.3L472.7 19.5L474.2 18ZM467 27V25.2L472 20.2L473.8 22L468.8 27H467Z" fill="#0F62FE"/>
</g>
</g>
<path d="M20.756 59.866H17.984V68H16.136V59.866H13.364V58.228H20.756V59.866ZM22.3171 68V57.64H24.1091V61.91H24.1791C24.4731 61.126 25.0891 60.524 26.2231 60.524C27.7211 60.524 28.5611 61.56 28.5611 63.38V68H26.7691V63.562C26.7691 62.526 26.4191 61.994 25.5651 61.994C24.8231 61.994 24.1091 62.386 24.1091 63.17V68H22.3171ZM31.6036 59.628C30.8616 59.628 30.5536 59.25 30.5536 58.732V58.452C30.5536 57.934 30.8616 57.556 31.6036 57.556C32.3316 57.556 32.6536 57.934 32.6536 58.452V58.732C32.6536 59.25 32.3316 59.628 31.6036 59.628ZM30.7076 68V60.692H32.4996V68H30.7076ZM37.1307 68.168C35.7447 68.168 34.8347 67.664 34.1067 66.824L35.1987 65.76C35.7307 66.376 36.3747 66.754 37.2007 66.754C38.0547 66.754 38.4187 66.432 38.4187 65.914C38.4187 65.494 38.1667 65.228 37.5227 65.144L36.7947 65.046C35.2267 64.85 34.3587 64.164 34.3587 62.834C34.3587 61.42 35.4647 60.524 37.1307 60.524C38.5587 60.524 39.2867 60.944 39.9867 61.672L38.9367 62.722C38.5167 62.274 37.9007 61.938 37.1867 61.938C36.4167 61.938 36.0807 62.246 36.0807 62.694C36.0807 63.184 36.3467 63.408 37.0327 63.52L37.7747 63.618C39.3707 63.842 40.1407 64.556 40.1407 65.774C40.1407 67.188 38.9507 68.168 37.1307 68.168ZM46.2476 59.628C45.5056 59.628 45.1976 59.25 45.1976 58.732V58.452C45.1976 57.934 45.5056 57.556 46.2476 57.556C46.9756 57.556 47.2976 57.934 47.2976 58.452V58.732C47.2976 59.25 46.9756 59.628 46.2476 59.628ZM45.3516 68V60.692H47.1436V68H45.3516ZM51.7748 68.168C50.3888 68.168 49.4788 67.664 48.7508 66.824L49.8428 65.76C50.3748 66.376 51.0188 66.754 51.8448 66.754C52.6988 66.754 53.0628 66.432 53.0628 65.914C53.0628 65.494 52.8108 65.228 52.1668 65.144L51.4388 65.046C49.8708 64.85 49.0028 64.164 49.0028 62.834C49.0028 61.42 50.1088 60.524 51.7748 60.524C53.2028 60.524 53.9308 60.944 54.6308 61.672L53.5808 62.722C53.1608 62.274 52.5448 61.938 51.8308 61.938C51.0608 61.938 50.7248 62.246 50.7248 62.694C50.7248 63.184 50.9908 63.408 51.6768 63.52L52.4188 63.618C54.0148 63.842 54.7848 64.556 54.7848 65.774C54.7848 67.188 53.5948 68.168 51.7748 68.168ZM62.2777 68C61.0457 68 60.3877 67.328 60.3877 66.138V62.12H59.3097V60.692H59.8697C60.4017 60.692 60.5697 60.44 60.5697 59.936V58.69H62.1797V60.692H63.6777V62.12H62.1797V66.572H63.5657V68H62.2777ZM65.392 68V57.64H67.184V61.91H67.254C67.548 61.126 68.164 60.524 69.298 60.524C70.796 60.524 71.636 61.56 71.636 63.38V68H69.844V63.562C69.844 62.526 69.494 61.994 68.64 61.994C67.898 61.994 67.184 62.386 67.184 63.17V68H65.392ZM76.7365 68.168C74.5805 68.168 73.2925 66.67 73.2925 64.332C73.2925 62.022 74.5385 60.524 76.6805 60.524C78.9625 60.524 80.0125 62.204 80.0125 64.206V64.794H75.1545V64.976C75.1545 66.026 75.7565 66.74 76.9325 66.74C77.8145 66.74 78.3465 66.32 78.7945 65.746L79.7605 66.824C79.1585 67.65 78.0945 68.168 76.7365 68.168ZM76.7085 61.868C75.7705 61.868 75.1545 62.568 75.1545 63.576V63.688H78.1505V63.562C78.1505 62.554 77.6325 61.868 76.7085 61.868ZM89.7537 68V66.782H89.6837C89.4177 67.608 88.6337 68.168 87.6677 68.168C85.8337 68.168 84.8117 66.782 84.8117 64.332C84.8117 61.896 85.8337 60.524 87.6677 60.524C88.6337 60.524 89.4317 61.056 89.6837 61.896H89.7537V57.64H91.5457V68H89.7537ZM88.2417 66.684C89.0957 66.684 89.7537 66.25 89.7537 65.494V63.17C89.7537 62.456 89.0957 61.994 88.2417 61.994C87.3177 61.994 86.6877 62.68 86.6877 63.716V64.976C86.6877 66.012 87.3177 66.684 88.2417 66.684ZM96.7263 68.168C94.5703 68.168 93.2823 66.67 93.2823 64.332C93.2823 62.022 94.5283 60.524 96.6703 60.524C98.9523 60.524 100.002 62.204 100.002 64.206V64.794H95.1443V64.976C95.1443 66.026 95.7463 66.74 96.9223 66.74C97.8043 66.74 98.3363 66.32 98.7843 65.746L99.7503 66.824C99.1483 67.65 98.0843 68.168 96.7263 68.168ZM96.6983 61.868C95.7603 61.868 95.1443 62.568 95.1443 63.576V63.688H98.1403V63.562C98.1403 62.554 97.6223 61.868 96.6983 61.868ZM101.739 70.8V60.692H103.531V61.896H103.587C103.853 61.056 104.637 60.524 105.603 60.524C107.451 60.524 108.473 61.896 108.473 64.332C108.473 66.782 107.451 68.168 105.603 68.168C104.637 68.168 103.867 67.608 103.587 66.782H103.531V70.8H101.739ZM105.029 66.684C105.953 66.684 106.597 66.012 106.597 64.976V63.716C106.597 62.68 105.953 61.994 105.029 61.994C104.175 61.994 103.531 62.456 103.531 63.17V65.494C103.531 66.25 104.175 66.684 105.029 66.684ZM113.051 68H112.085C110.867 68 110.293 67.356 110.293 66.236V57.64H112.085V66.572H113.051V68ZM117.467 68.168C115.381 68.168 114.079 66.684 114.079 64.332C114.079 61.994 115.381 60.524 117.467 60.524C119.567 60.524 120.869 61.994 120.869 64.332C120.869 66.684 119.567 68.168 117.467 68.168ZM117.467 66.726C118.405 66.726 118.993 66.124 118.993 65.018V63.66C118.993 62.568 118.405 61.966 117.467 61.966C116.543 61.966 115.955 62.568 115.955 63.66V65.018C115.955 66.124 116.543 66.726 117.467 66.726ZM125.7 64.556L126.974 60.692H128.654L125.714 69.302C125.35 70.352 124.832 70.8 123.628 70.8H122.55V69.372H123.866L124.202 68.35L121.584 60.692H123.362L124.636 64.556L125.112 66.404H125.196L125.7 64.556ZM131.788 68H129.996V60.692H131.788V61.91H131.858C132.138 61.14 132.726 60.524 133.818 60.524C134.812 60.524 135.582 61.014 135.932 61.994H135.96C136.226 61.182 137.038 60.524 138.2 60.524C139.628 60.524 140.44 61.56 140.44 63.38V68H138.648V63.562C138.648 62.512 138.27 61.994 137.472 61.994C136.772 61.994 136.114 62.386 136.114 63.17V68H134.322V63.562C134.322 62.512 133.944 61.994 133.146 61.994C132.46 61.994 131.788 62.386 131.788 63.17V68ZM145.538 68.168C143.382 68.168 142.094 66.67 142.094 64.332C142.094 62.022 143.34 60.524 145.482 60.524C147.764 60.524 148.814 62.204 148.814 64.206V64.794H143.956V64.976C143.956 66.026 144.558 66.74 145.734 66.74C146.616 66.74 147.148 66.32 147.596 65.746L148.562 66.824C147.96 67.65 146.896 68.168 145.538 68.168ZM145.51 61.868C144.572 61.868 143.956 62.568 143.956 63.576V63.688H146.952V63.562C146.952 62.554 146.434 61.868 145.51 61.868ZM152.342 68H150.55V60.692H152.342V61.91H152.412C152.706 61.126 153.322 60.524 154.456 60.524C155.954 60.524 156.794 61.56 156.794 63.38V68H155.002V63.562C155.002 62.526 154.652 61.994 153.798 61.994C153.056 61.994 152.342 62.386 152.342 63.17V68ZM161.223 68C159.991 68 159.333 67.328 159.333 66.138V62.12H158.255V60.692H158.815C159.347 60.692 159.515 60.44 159.515 59.936V58.69H161.125V60.692H162.623V62.12H161.125V66.572H162.511V68H161.223ZM171.502 68H169.374L166.938 60.692H168.702L169.724 63.842L170.438 66.446H170.536L171.25 63.842L172.244 60.692H173.952L171.502 68ZM178.152 68.168C175.996 68.168 174.708 66.67 174.708 64.332C174.708 62.022 175.954 60.524 178.096 60.524C180.378 60.524 181.428 62.204 181.428 64.206V64.794H176.57V64.976C176.57 66.026 177.172 66.74 178.348 66.74C179.23 66.74 179.762 66.32 180.21 65.746L181.176 66.824C180.574 67.65 179.51 68.168 178.152 68.168ZM178.124 61.868C177.186 61.868 176.57 62.568 176.57 63.576V63.688H179.566V63.562C179.566 62.554 179.048 61.868 178.124 61.868ZM184.957 68H183.165V60.692H184.957V62.204H185.027C185.209 61.434 185.797 60.692 186.959 60.692H187.351V62.386H186.791C185.587 62.386 184.957 62.722 184.957 63.52V68ZM191.215 68.168C189.829 68.168 188.919 67.664 188.191 66.824L189.283 65.76C189.815 66.376 190.459 66.754 191.285 66.754C192.139 66.754 192.503 66.432 192.503 65.914C192.503 65.494 192.251 65.228 191.607 65.144L190.879 65.046C189.311 64.85 188.443 64.164 188.443 62.834C188.443 61.42 189.549 60.524 191.215 60.524C192.643 60.524 193.371 60.944 194.071 61.672L193.021 62.722C192.601 62.274 191.985 61.938 191.271 61.938C190.501 61.938 190.165 62.246 190.165 62.694C190.165 63.184 190.431 63.408 191.117 63.52L191.859 63.618C193.455 63.842 194.225 64.556 194.225 65.774C194.225 67.188 193.035 68.168 191.215 68.168ZM196.863 59.628C196.121 59.628 195.813 59.25 195.813 58.732V58.452C195.813 57.934 196.121 57.556 196.863 57.556C197.591 57.556 197.913 57.934 197.913 58.452V58.732C197.913 59.25 197.591 59.628 196.863 59.628ZM195.967 68V60.692H197.759V68H195.967ZM202.894 68.168C200.808 68.168 199.506 66.684 199.506 64.332C199.506 61.994 200.808 60.524 202.894 60.524C204.994 60.524 206.296 61.994 206.296 64.332C206.296 66.684 204.994 68.168 202.894 68.168ZM202.894 66.726C203.832 66.726 204.42 66.124 204.42 65.018V63.66C204.42 62.568 203.832 61.966 202.894 61.966C201.97 61.966 201.382 62.568 201.382 63.66V65.018C201.382 66.124 201.97 66.726 202.894 66.726ZM209.837 68H208.045V60.692H209.837V61.91H209.907C210.201 61.126 210.817 60.524 211.951 60.524C213.449 60.524 214.289 61.56 214.289 63.38V68H212.497V63.562C212.497 62.526 212.147 61.994 211.293 61.994C210.551 61.994 209.837 62.386 209.837 63.17V68ZM222.802 68.168C220.716 68.168 219.414 66.684 219.414 64.332C219.414 61.994 220.716 60.524 222.802 60.524C224.902 60.524 226.204 61.994 226.204 64.332C226.204 66.684 224.902 68.168 222.802 68.168ZM222.802 66.726C223.74 66.726 224.328 66.124 224.328 65.018V63.66C224.328 62.568 223.74 61.966 222.802 61.966C221.878 61.966 221.29 62.568 221.29 63.66V65.018C221.29 66.124 221.878 66.726 222.802 66.726ZM228.235 68V62.106H227.157V60.692H228.235V59.642C228.235 58.354 228.935 57.64 230.251 57.64H231.525V59.068H230.027V60.692H231.525V62.106H230.027V68H228.235ZM239.6 64.556L240.874 60.692H242.554L239.614 69.302C239.25 70.352 238.732 70.8 237.528 70.8H236.45V69.372H237.766L238.102 68.35L235.484 60.692H237.262L238.536 64.556L239.012 66.404H239.096L239.6 64.556ZM246.698 68.168C244.612 68.168 243.31 66.684 243.31 64.332C243.31 61.994 244.612 60.524 246.698 60.524C248.798 60.524 250.1 61.994 250.1 64.332C250.1 66.684 248.798 68.168 246.698 68.168ZM246.698 66.726C247.636 66.726 248.224 66.124 248.224 65.018V63.66C248.224 62.568 247.636 61.966 246.698 61.966C245.774 61.966 245.186 62.568 245.186 63.66V65.018C245.186 66.124 245.774 66.726 246.698 66.726ZM256.217 68V66.782H256.147C255.895 67.51 255.307 68.168 254.103 68.168C252.605 68.168 251.765 67.132 251.765 65.312V60.692H253.557V65.13C253.557 66.138 253.935 66.684 254.789 66.684C255.503 66.684 256.217 66.306 256.217 65.522V60.692H258.009V68H256.217ZM262.031 68H260.239V60.692H262.031V62.204H262.101C262.283 61.434 262.871 60.692 264.033 60.692H264.425V62.386H263.865C262.661 62.386 262.031 62.722 262.031 63.52V68ZM273.9 68V66.782H273.83C273.564 67.608 272.78 68.168 271.814 68.168C269.98 68.168 268.958 66.782 268.958 64.332C268.958 61.896 269.98 60.524 271.814 60.524C272.78 60.524 273.578 61.056 273.83 61.896H273.9V57.64H275.692V68H273.9ZM272.388 66.684C273.242 66.684 273.9 66.25 273.9 65.494V63.17C273.9 62.456 273.242 61.994 272.388 61.994C271.464 61.994 270.834 62.68 270.834 63.716V64.976C270.834 66.012 271.464 66.684 272.388 66.684ZM279.724 68.168C278.24 68.168 277.4 67.314 277.4 66.012C277.4 64.514 278.534 63.772 280.522 63.772H281.768V63.24C281.768 62.428 281.362 61.952 280.41 61.952C279.57 61.952 279.094 62.372 278.744 62.876L277.68 61.924C278.212 61.084 279.066 60.524 280.536 60.524C282.51 60.524 283.56 61.462 283.56 63.128V66.572H284.288V68H283.294C282.524 68 282.048 67.496 281.936 66.74H281.852C281.614 67.678 280.816 68.168 279.724 68.168ZM280.326 66.866C281.124 66.866 281.768 66.502 281.768 65.816V64.85H280.62C279.682 64.85 279.22 65.172 279.22 65.746V65.984C279.22 66.572 279.626 66.866 280.326 66.866ZM288.126 68C286.894 68 286.236 67.328 286.236 66.138V62.12H285.158V60.692H285.718C286.25 60.692 286.418 60.44 286.418 59.936V58.69H288.028V60.692H289.526V62.12H288.028V66.572H289.414V68H288.126ZM293.046 68.168C291.562 68.168 290.722 67.314 290.722 66.012C290.722 64.514 291.856 63.772 293.844 63.772H295.09V63.24C295.09 62.428 294.684 61.952 293.732 61.952C292.892 61.952 292.416 62.372 292.066 62.876L291.002 61.924C291.534 61.084 292.388 60.524 293.858 60.524C295.832 60.524 296.882 61.462 296.882 63.128V66.572H297.61V68H296.616C295.846 68 295.37 67.496 295.258 66.74H295.174C294.936 67.678 294.138 68.168 293.046 68.168ZM293.648 66.866C294.446 66.866 295.09 66.502 295.09 65.816V64.85H293.942C293.004 64.85 292.542 65.172 292.542 65.746V65.984C292.542 66.572 292.948 66.866 293.648 66.866ZM299.221 68V57.64H301.013V61.896H301.069C301.335 61.056 302.119 60.524 303.085 60.524C304.933 60.524 305.955 61.896 305.955 64.332C305.955 66.782 304.933 68.168 303.085 68.168C302.119 68.168 301.349 67.608 301.069 66.782H301.013V68H299.221ZM302.511 66.684C303.435 66.684 304.079 66.012 304.079 64.976V63.716C304.079 62.68 303.435 61.994 302.511 61.994C301.657 61.994 301.013 62.456 301.013 63.17V65.494C301.013 66.25 301.657 66.684 302.511 66.684ZM309.581 68.168C308.097 68.168 307.257 67.314 307.257 66.012C307.257 64.514 308.391 63.772 310.379 63.772H311.625V63.24C311.625 62.428 311.219 61.952 310.267 61.952C309.427 61.952 308.951 62.372 308.601 62.876L307.537 61.924C308.069 61.084 308.923 60.524 310.393 60.524C312.367 60.524 313.417 61.462 313.417 63.128V66.572H314.145V68H313.151C312.381 68 311.905 67.496 311.793 66.74H311.709C311.471 67.678 310.673 68.168 309.581 68.168ZM310.183 66.866C310.981 66.866 311.625 66.502 311.625 65.816V64.85H310.477C309.539 64.85 309.077 65.172 309.077 65.746V65.984C309.077 66.572 309.483 66.866 310.183 66.866ZM318.15 68.168C316.764 68.168 315.854 67.664 315.126 66.824L316.218 65.76C316.75 66.376 317.394 66.754 318.22 66.754C319.074 66.754 319.438 66.432 319.438 65.914C319.438 65.494 319.186 65.228 318.542 65.144L317.814 65.046C316.246 64.85 315.378 64.164 315.378 62.834C315.378 61.42 316.484 60.524 318.15 60.524C319.578 60.524 320.306 60.944 321.006 61.672L319.956 62.722C319.536 62.274 318.92 61.938 318.206 61.938C317.436 61.938 317.1 62.246 317.1 62.694C317.1 63.184 317.366 63.408 318.052 63.52L318.794 63.618C320.39 63.842 321.16 64.556 321.16 65.774C321.16 67.188 319.97 68.168 318.15 68.168ZM325.856 68.168C323.7 68.168 322.412 66.67 322.412 64.332C322.412 62.022 323.658 60.524 325.8 60.524C328.082 60.524 329.132 62.204 329.132 64.206V64.794H324.274V64.976C324.274 66.026 324.876 66.74 326.052 66.74C326.934 66.74 327.466 66.32 327.914 65.746L328.88 66.824C328.278 67.65 327.214 68.168 325.856 68.168ZM325.828 61.868C324.89 61.868 324.274 62.568 324.274 63.576V63.688H327.27V63.562C327.27 62.554 326.752 61.868 325.828 61.868ZM331.7 68.154C330.944 68.154 330.58 67.72 330.58 67.132V66.88C330.58 66.278 330.944 65.844 331.7 65.844C332.47 65.844 332.82 66.278 332.82 66.88V67.132C332.82 67.72 332.47 68.154 331.7 68.154ZM342.144 68H340.044L337.776 58.228H339.624L340.59 62.918L341.192 65.914H341.234L341.934 62.918L343.054 58.228H345.098L346.218 62.918L346.904 65.914H346.946L347.562 62.918L348.556 58.228H350.32L347.982 68H345.896L344.65 62.834L344.048 60.258H344.02L343.39 62.834L342.144 68ZM354.537 68.168C352.381 68.168 351.093 66.67 351.093 64.332C351.093 62.022 352.339 60.524 354.481 60.524C356.763 60.524 357.813 62.204 357.813 64.206V64.794H352.955V64.976C352.955 66.026 353.557 66.74 354.733 66.74C355.615 66.74 356.147 66.32 356.595 65.746L357.561 66.824C356.959 67.65 355.895 68.168 354.537 68.168ZM354.509 61.868C353.571 61.868 352.955 62.568 352.955 63.576V63.688H355.951V63.562C355.951 62.554 355.433 61.868 354.509 61.868ZM364.81 68H363.018V60.692H364.81V62.204H364.88C365.062 61.434 365.65 60.692 366.812 60.692H367.204V62.386H366.644C365.44 62.386 364.81 62.722 364.81 63.52V68ZM371.56 68.168C369.404 68.168 368.116 66.67 368.116 64.332C368.116 62.022 369.362 60.524 371.504 60.524C373.786 60.524 374.836 62.204 374.836 64.206V64.794H369.978V64.976C369.978 66.026 370.58 66.74 371.756 66.74C372.638 66.74 373.17 66.32 373.618 65.746L374.584 66.824C373.982 67.65 372.918 68.168 371.56 68.168ZM371.532 61.868C370.594 61.868 369.978 62.568 369.978 63.576V63.688H372.974V63.562C372.974 62.554 372.456 61.868 371.532 61.868ZM379.456 68.168C377.3 68.168 376.082 66.684 376.082 64.332C376.082 61.994 377.3 60.524 379.456 60.524C380.926 60.524 381.892 61.224 382.326 62.372L380.856 63.03C380.688 62.414 380.226 61.966 379.456 61.966C378.462 61.966 377.958 62.666 377.958 63.688V65.018C377.958 66.04 378.462 66.726 379.456 66.726C380.31 66.726 380.73 66.236 380.996 65.578L382.368 66.236C381.892 67.524 380.87 68.168 379.456 68.168ZM386.74 68.168C384.654 68.168 383.352 66.684 383.352 64.332C383.352 61.994 384.654 60.524 386.74 60.524C388.84 60.524 390.142 61.994 390.142 64.332C390.142 66.684 388.84 68.168 386.74 68.168ZM386.74 66.726C387.678 66.726 388.266 66.124 388.266 65.018V63.66C388.266 62.568 387.678 61.966 386.74 61.966C385.816 61.966 385.228 62.568 385.228 63.66V65.018C385.228 66.124 385.816 66.726 386.74 66.726ZM393.683 68H391.891V60.692H393.683V61.91H393.753C394.033 61.14 394.621 60.524 395.713 60.524C396.707 60.524 397.477 61.014 397.827 61.994H397.855C398.121 61.182 398.933 60.524 400.095 60.524C401.523 60.524 402.335 61.56 402.335 63.38V68H400.543V63.562C400.543 62.512 400.165 61.994 399.367 61.994C398.667 61.994 398.009 62.386 398.009 63.17V68H396.217V63.562C396.217 62.512 395.839 61.994 395.041 61.994C394.355 61.994 393.683 62.386 393.683 63.17V68ZM406.27 68H404.478V60.692H406.27V61.91H406.34C406.62 61.14 407.208 60.524 408.3 60.524C409.294 60.524 410.064 61.014 410.414 61.994H410.442C410.708 61.182 411.52 60.524 412.682 60.524C414.11 60.524 414.922 61.56 414.922 63.38V68H413.13V63.562C413.13 62.512 412.752 61.994 411.954 61.994C411.254 61.994 410.596 62.386 410.596 63.17V68H408.804V63.562C408.804 62.512 408.426 61.994 407.628 61.994C406.942 61.994 406.27 62.386 406.27 63.17V68ZM420.02 68.168C417.864 68.168 416.576 66.67 416.576 64.332C416.576 62.022 417.822 60.524 419.964 60.524C422.246 60.524 423.296 62.204 423.296 64.206V64.794H418.438V64.976C418.438 66.026 419.04 66.74 420.216 66.74C421.098 66.74 421.63 66.32 422.078 65.746L423.044 66.824C422.442 67.65 421.378 68.168 420.02 68.168ZM419.992 61.868C419.054 61.868 418.438 62.568 418.438 63.576V63.688H421.434V63.562C421.434 62.554 420.916 61.868 419.992 61.868ZM426.825 68H425.033V60.692H426.825V61.91H426.895C427.189 61.126 427.805 60.524 428.939 60.524C430.437 60.524 431.277 61.56 431.277 63.38V68H429.485V63.562C429.485 62.526 429.135 61.994 428.281 61.994C427.539 61.994 426.825 62.386 426.825 63.17V68ZM437.959 68V66.782H437.889C437.623 67.608 436.839 68.168 435.873 68.168C434.039 68.168 433.017 66.782 433.017 64.332C433.017 61.896 434.039 60.524 435.873 60.524C436.839 60.524 437.637 61.056 437.889 61.896H437.959V57.64H439.751V68H437.959ZM436.447 66.684C437.301 66.684 437.959 66.25 437.959 65.494V63.17C437.959 62.456 437.301 61.994 436.447 61.994C435.523 61.994 434.893 62.68 434.893 63.716V64.976C434.893 66.012 435.523 66.684 436.447 66.684ZM15.828 86H14.036V78.692H15.828V80.204H15.898C16.08 79.434 16.668 78.692 17.83 78.692H18.222V80.386H17.662C16.458 80.386 15.828 80.722 15.828 81.52V86ZM24.0601 86V84.782H23.9901C23.7381 85.51 23.1501 86.168 21.9461 86.168C20.4481 86.168 19.6081 85.132 19.6081 83.312V78.692H21.4001V83.13C21.4001 84.138 21.7781 84.684 22.6321 84.684C23.3461 84.684 24.0601 84.306 24.0601 83.522V78.692H25.8521V86H24.0601ZM29.8746 86H28.0826V78.692H29.8746V79.91H29.9446C30.2386 79.126 30.8546 78.524 31.9886 78.524C33.4866 78.524 34.3266 79.56 34.3266 81.38V86H32.5346V81.562C32.5346 80.526 32.1846 79.994 31.3306 79.994C30.5886 79.994 29.8746 80.386 29.8746 81.17V86ZM38.265 86H36.473V78.692H38.265V79.91H38.335C38.629 79.126 39.245 78.524 40.379 78.524C41.877 78.524 42.717 79.56 42.717 81.38V86H40.925V81.562C40.925 80.526 40.575 79.994 39.721 79.994C38.979 79.994 38.265 80.386 38.265 81.17V86ZM45.7595 77.628C45.0175 77.628 44.7095 77.25 44.7095 76.732V76.452C44.7095 75.934 45.0175 75.556 45.7595 75.556C46.4875 75.556 46.8095 75.934 46.8095 76.452V76.732C46.8095 77.25 46.4875 77.628 45.7595 77.628ZM44.8635 86V78.692H46.6555V86H44.8635ZM50.6846 86H48.8926V78.692H50.6846V79.91H50.7546C51.0486 79.126 51.6646 78.524 52.7986 78.524C54.2966 78.524 55.1366 79.56 55.1366 81.38V86H53.3446V81.562C53.3446 80.526 52.9946 79.994 52.1406 79.994C51.3986 79.994 50.6846 80.386 50.6846 81.17V86ZM63.8771 86.616C63.8771 88.142 62.8411 88.968 60.0411 88.968C57.5771 88.968 56.6391 88.324 56.6391 87.246C56.6391 86.434 57.1291 85.972 57.9411 85.846V85.692C57.3391 85.538 57.0031 85.062 57.0031 84.474C57.0031 83.718 57.6471 83.34 58.3471 83.186V83.13C57.4651 82.724 57.0171 81.968 57.0171 81.002C57.0171 79.518 58.0671 78.524 60.0411 78.524C60.4891 78.524 60.9511 78.58 61.3151 78.706V78.468C61.3151 77.754 61.6791 77.404 62.3511 77.404H63.4851V78.776H61.9311V78.972C62.6871 79.392 63.0651 80.106 63.0651 81.002C63.0651 82.472 62.0291 83.452 60.0411 83.452C59.6211 83.452 59.2431 83.41 58.9211 83.326C58.6411 83.452 58.4031 83.662 58.4031 83.984C58.4031 84.348 58.7111 84.53 59.3551 84.53H61.3151C63.1071 84.53 63.8771 85.3 63.8771 86.616ZM62.1971 86.826C62.1971 86.364 61.8611 86.084 60.9511 86.084H58.4591C58.1931 86.28 58.0811 86.546 58.0811 86.84C58.0811 87.4 58.5011 87.736 59.6211 87.736H60.5171C61.6791 87.736 62.1971 87.442 62.1971 86.826ZM60.0411 82.234C60.8951 82.234 61.3571 81.842 61.3571 81.114V80.876C61.3571 80.134 60.8951 79.756 60.0411 79.756C59.1871 79.756 58.7251 80.134 58.7251 80.876V81.114C58.7251 81.842 59.1871 82.234 60.0411 82.234ZM70.8226 86C69.5906 86 68.9326 85.328 68.9326 84.138V80.12H67.8546V78.692H68.4146C68.9466 78.692 69.1146 78.44 69.1146 77.936V76.69H70.7246V78.692H72.2226V80.12H70.7246V84.572H72.1106V86H70.8226ZM73.9369 86V75.64H75.7289V79.91H75.7989C76.0929 79.126 76.7089 78.524 77.8429 78.524C79.3409 78.524 80.1809 79.56 80.1809 81.38V86H78.3889V81.562C78.3889 80.526 78.0389 79.994 77.1849 79.994C76.4429 79.994 75.7289 80.386 75.7289 81.17V86H73.9369ZM85.2814 86.168C83.1254 86.168 81.8374 84.67 81.8374 82.332C81.8374 80.022 83.0834 78.524 85.2254 78.524C87.5074 78.524 88.5574 80.204 88.5574 82.206V82.794H83.6994V82.976C83.6994 84.026 84.3014 84.74 85.4774 84.74C86.3594 84.74 86.8914 84.32 87.3394 83.746L88.3054 84.824C87.7034 85.65 86.6394 86.168 85.2814 86.168ZM85.2534 79.868C84.3154 79.868 83.6994 80.568 83.6994 81.576V81.688H86.6954V81.562C86.6954 80.554 86.1774 79.868 85.2534 79.868ZM93.7626 88.8V78.692H95.5546V79.896H95.6106C95.8766 79.056 96.6606 78.524 97.6266 78.524C99.4746 78.524 100.497 79.896 100.497 82.332C100.497 84.782 99.4746 86.168 97.6266 86.168C96.6606 86.168 95.8906 85.608 95.6106 84.782H95.5546V88.8H93.7626ZM97.0526 84.684C97.9766 84.684 98.6206 84.012 98.6206 82.976V81.716C98.6206 80.68 97.9766 79.994 97.0526 79.994C96.1986 79.994 95.5546 80.456 95.5546 81.17V83.494C95.5546 84.25 96.1986 84.684 97.0526 84.684ZM104.109 86H102.317V78.692H104.109V80.204H104.179C104.361 79.434 104.949 78.692 106.111 78.692H106.503V80.386H105.943C104.739 80.386 104.109 80.722 104.109 81.52V86ZM110.859 86.168C108.703 86.168 107.415 84.67 107.415 82.332C107.415 80.022 108.661 78.524 110.803 78.524C113.085 78.524 114.135 80.204 114.135 82.206V82.794H109.277V82.976C109.277 84.026 109.879 84.74 111.055 84.74C111.937 84.74 112.469 84.32 112.917 83.746L113.883 84.824C113.281 85.65 112.217 86.168 110.859 86.168ZM110.831 79.868C109.893 79.868 109.277 80.568 109.277 81.576V81.688H112.273V81.562C112.273 80.554 111.755 79.868 110.831 79.868ZM116.236 86V80.106H115.158V78.692H116.236V77.642C116.236 76.354 116.936 75.64 118.252 75.64H119.526V77.068H118.028V78.692H119.526V80.106H118.028V86H116.236ZM123.825 86.168C121.669 86.168 120.381 84.67 120.381 82.332C120.381 80.022 121.627 78.524 123.769 78.524C126.051 78.524 127.101 80.204 127.101 82.206V82.794H122.243V82.976C122.243 84.026 122.845 84.74 124.021 84.74C124.903 84.74 125.435 84.32 125.883 83.746L126.849 84.824C126.247 85.65 125.183 86.168 123.825 86.168ZM123.797 79.868C122.859 79.868 122.243 80.568 122.243 81.576V81.688H125.239V81.562C125.239 80.554 124.721 79.868 123.797 79.868ZM130.63 86H128.838V78.692H130.63V80.204H130.7C130.882 79.434 131.47 78.692 132.632 78.692H133.024V80.386H132.464C131.26 80.386 130.63 80.722 130.63 81.52V86ZM136.286 86H134.494V78.692H136.286V80.204H136.356C136.538 79.434 137.126 78.692 138.288 78.692H138.68V80.386H138.12C136.916 80.386 136.286 80.722 136.286 81.52V86ZM143.036 86.168C140.88 86.168 139.592 84.67 139.592 82.332C139.592 80.022 140.838 78.524 142.98 78.524C145.262 78.524 146.312 80.204 146.312 82.206V82.794H141.454V82.976C141.454 84.026 142.056 84.74 143.232 84.74C144.114 84.74 144.646 84.32 145.094 83.746L146.06 84.824C145.458 85.65 144.394 86.168 143.036 86.168ZM143.008 79.868C142.07 79.868 141.454 80.568 141.454 81.576V81.688H144.45V81.562C144.45 80.554 143.932 79.868 143.008 79.868ZM152.584 86V84.782H152.514C152.248 85.608 151.464 86.168 150.498 86.168C148.664 86.168 147.642 84.782 147.642 82.332C147.642 79.896 148.664 78.524 150.498 78.524C151.464 78.524 152.262 79.056 152.514 79.896H152.584V75.64H154.376V86H152.584ZM151.072 84.684C151.926 84.684 152.584 84.25 152.584 83.494V81.17C152.584 80.456 151.926 79.994 151.072 79.994C150.148 79.994 149.518 80.68 149.518 81.716V82.976C149.518 84.012 150.148 84.684 151.072 84.684ZM163.768 86H161.64L159.204 78.692H160.968L161.99 81.842L162.704 84.446H162.802L163.516 81.842L164.51 78.692H166.218L163.768 86ZM170.418 86.168C168.262 86.168 166.974 84.67 166.974 82.332C166.974 80.022 168.22 78.524 170.362 78.524C172.644 78.524 173.694 80.204 173.694 82.206V82.794H168.836V82.976C168.836 84.026 169.438 84.74 170.614 84.74C171.496 84.74 172.028 84.32 172.476 83.746L173.442 84.824C172.84 85.65 171.776 86.168 170.418 86.168ZM170.39 79.868C169.452 79.868 168.836 80.568 168.836 81.576V81.688H171.832V81.562C171.832 80.554 171.314 79.868 170.39 79.868ZM177.223 86H175.431V78.692H177.223V80.204H177.293C177.475 79.434 178.063 78.692 179.225 78.692H179.617V80.386H179.057C177.853 80.386 177.223 80.722 177.223 81.52V86ZM183.481 86.168C182.095 86.168 181.185 85.664 180.457 84.824L181.549 83.76C182.081 84.376 182.725 84.754 183.551 84.754C184.405 84.754 184.769 84.432 184.769 83.914C184.769 83.494 184.517 83.228 183.873 83.144L183.145 83.046C181.577 82.85 180.709 82.164 180.709 80.834C180.709 79.42 181.815 78.524 183.481 78.524C184.909 78.524 185.637 78.944 186.337 79.672L185.287 80.722C184.867 80.274 184.251 79.938 183.537 79.938C182.767 79.938 182.431 80.246 182.431 80.694C182.431 81.184 182.697 81.408 183.383 81.52L184.125 81.618C185.721 81.842 186.491 82.556 186.491 83.774C186.491 85.188 185.301 86.168 183.481 86.168ZM189.129 77.628C188.387 77.628 188.079 77.25 188.079 76.732V76.452C188.079 75.934 188.387 75.556 189.129 75.556C189.857 75.556 190.179 75.934 190.179 76.452V76.732C190.179 77.25 189.857 77.628 189.129 77.628ZM188.233 86V78.692H190.025V86H188.233ZM195.16 86.168C193.074 86.168 191.772 84.684 191.772 82.332C191.772 79.994 193.074 78.524 195.16 78.524C197.26 78.524 198.562 79.994 198.562 82.332C198.562 84.684 197.26 86.168 195.16 86.168ZM195.16 84.726C196.098 84.726 196.686 84.124 196.686 83.018V81.66C196.686 80.568 196.098 79.966 195.16 79.966C194.236 79.966 193.648 80.568 193.648 81.66V83.018C193.648 84.124 194.236 84.726 195.16 84.726ZM202.103 86H200.311V78.692H202.103V79.91H202.173C202.467 79.126 203.083 78.524 204.217 78.524C205.715 78.524 206.555 79.56 206.555 81.38V86H204.763V81.562C204.763 80.526 204.413 79.994 203.559 79.994C202.817 79.994 202.103 80.386 202.103 81.17V86ZM214.452 86C213.22 86 212.562 85.328 212.562 84.138V80.12H211.484V78.692H212.044C212.576 78.692 212.744 78.44 212.744 77.936V76.69H214.354V78.692H215.852V80.12H214.354V84.572H215.74V86H214.452ZM220.41 86.168C218.324 86.168 217.022 84.684 217.022 82.332C217.022 79.994 218.324 78.524 220.41 78.524C222.51 78.524 223.812 79.994 223.812 82.332C223.812 84.684 222.51 86.168 220.41 86.168ZM220.41 84.726C221.348 84.726 221.936 84.124 221.936 83.018V81.66C221.936 80.568 221.348 79.966 220.41 79.966C219.486 79.966 218.898 80.568 218.898 81.66V83.018C218.898 84.124 219.486 84.726 220.41 84.726ZM231.983 86.168C229.827 86.168 228.539 84.67 228.539 82.332C228.539 80.022 229.785 78.524 231.927 78.524C234.209 78.524 235.259 80.204 235.259 82.206V82.794H230.401V82.976C230.401 84.026 231.003 84.74 232.179 84.74C233.061 84.74 233.593 84.32 234.041 83.746L235.007 84.824C234.405 85.65 233.341 86.168 231.983 86.168ZM231.955 79.868C231.017 79.868 230.401 80.568 230.401 81.576V81.688H233.397V81.562C233.397 80.554 232.879 79.868 231.955 79.868ZM238.788 86H236.996V78.692H238.788V79.91H238.858C239.152 79.126 239.768 78.524 240.902 78.524C242.4 78.524 243.24 79.56 243.24 81.38V86H241.448V81.562C241.448 80.526 241.098 79.994 240.244 79.994C239.502 79.994 238.788 80.386 238.788 81.17V86ZM247.78 86.168C246.394 86.168 245.484 85.664 244.756 84.824L245.848 83.76C246.38 84.376 247.024 84.754 247.85 84.754C248.704 84.754 249.068 84.432 249.068 83.914C249.068 83.494 248.816 83.228 248.172 83.144L247.444 83.046C245.876 82.85 245.008 82.164 245.008 80.834C245.008 79.42 246.114 78.524 247.78 78.524C249.208 78.524 249.936 78.944 250.636 79.672L249.586 80.722C249.166 80.274 248.55 79.938 247.836 79.938C247.066 79.938 246.73 80.246 246.73 80.694C246.73 81.184 246.996 81.408 247.682 81.52L248.424 81.618C250.02 81.842 250.79 82.556 250.79 83.774C250.79 85.188 249.6 86.168 247.78 86.168ZM256.9 86V84.782H256.83C256.578 85.51 255.99 86.168 254.786 86.168C253.288 86.168 252.448 85.132 252.448 83.312V78.692H254.24V83.13C254.24 84.138 254.618 84.684 255.472 84.684C256.186 84.684 256.9 84.306 256.9 83.522V78.692H258.692V86H256.9ZM262.715 86H260.923V78.692H262.715V80.204H262.785C262.967 79.434 263.555 78.692 264.717 78.692H265.109V80.386H264.549C263.345 80.386 262.715 80.722 262.715 81.52V86ZM269.465 86.168C267.309 86.168 266.021 84.67 266.021 82.332C266.021 80.022 267.267 78.524 269.409 78.524C271.691 78.524 272.741 80.204 272.741 82.206V82.794H267.883V82.976C267.883 84.026 268.485 84.74 269.661 84.74C270.543 84.74 271.075 84.32 271.523 83.746L272.489 84.824C271.887 85.65 270.823 86.168 269.465 86.168ZM269.437 79.868C268.499 79.868 267.883 80.568 267.883 81.576V81.688H270.879V81.562C270.879 80.554 270.361 79.868 269.437 79.868ZM280.844 86.168C278.758 86.168 277.456 84.684 277.456 82.332C277.456 79.994 278.758 78.524 280.844 78.524C282.944 78.524 284.246 79.994 284.246 82.332C284.246 84.684 282.944 86.168 280.844 86.168ZM280.844 84.726C281.782 84.726 282.37 84.124 282.37 83.018V81.66C282.37 80.568 281.782 79.966 280.844 79.966C279.92 79.966 279.332 80.568 279.332 81.66V83.018C279.332 84.124 279.92 84.726 280.844 84.726ZM285.994 88.8V78.692H287.786V79.896H287.842C288.108 79.056 288.892 78.524 289.858 78.524C291.706 78.524 292.728 79.896 292.728 82.332C292.728 84.782 291.706 86.168 289.858 86.168C288.892 86.168 288.122 85.608 287.842 84.782H287.786V88.8H285.994ZM289.284 84.684C290.208 84.684 290.852 84.012 290.852 82.976V81.716C290.852 80.68 290.208 79.994 289.284 79.994C288.43 79.994 287.786 80.456 287.786 81.17V83.494C287.786 84.25 288.43 84.684 289.284 84.684ZM296.749 86C295.517 86 294.859 85.328 294.859 84.138V80.12H293.781V78.692H294.341C294.873 78.692 295.041 78.44 295.041 77.936V76.69H296.651V78.692H298.149V80.12H296.651V84.572H298.037V86H296.749ZM300.759 77.628C300.017 77.628 299.709 77.25 299.709 76.732V76.452C299.709 75.934 300.017 75.556 300.759 75.556C301.487 75.556 301.809 75.934 301.809 76.452V76.732C301.809 77.25 301.487 77.628 300.759 77.628ZM299.863 86V78.692H301.655V86H299.863ZM305.684 86H303.892V78.692H305.684V79.91H305.754C306.034 79.14 306.622 78.524 307.714 78.524C308.708 78.524 309.478 79.014 309.828 79.994H309.856C310.122 79.182 310.934 78.524 312.096 78.524C313.524 78.524 314.336 79.56 314.336 81.38V86H312.544V81.562C312.544 80.512 312.166 79.994 311.368 79.994C310.668 79.994 310.01 80.386 310.01 81.17V86H308.218V81.562C308.218 80.512 307.84 79.994 307.042 79.994C306.356 79.994 305.684 80.386 305.684 81.17V86ZM318.286 86.168C316.802 86.168 315.962 85.314 315.962 84.012C315.962 82.514 317.096 81.772 319.084 81.772H320.33V81.24C320.33 80.428 319.924 79.952 318.972 79.952C318.132 79.952 317.656 80.372 317.306 80.876L316.242 79.924C316.774 79.084 317.628 78.524 319.098 78.524C321.072 78.524 322.122 79.462 322.122 81.128V84.572H322.85V86H321.856C321.086 86 320.61 85.496 320.498 84.74H320.414C320.176 85.678 319.378 86.168 318.286 86.168ZM318.888 84.866C319.686 84.866 320.33 84.502 320.33 83.816V82.85H319.182C318.244 82.85 317.782 83.172 317.782 83.746V83.984C317.782 84.572 318.188 84.866 318.888 84.866ZM327.218 86H326.252C325.034 86 324.46 85.356 324.46 84.236V75.64H326.252V84.572H327.218V86ZM332.204 88.8V78.692H333.996V79.896H334.052C334.318 79.056 335.102 78.524 336.068 78.524C337.916 78.524 338.938 79.896 338.938 82.332C338.938 84.782 337.916 86.168 336.068 86.168C335.102 86.168 334.332 85.608 334.052 84.782H333.996V88.8H332.204ZM335.494 84.684C336.418 84.684 337.062 84.012 337.062 82.976V81.716C337.062 80.68 336.418 79.994 335.494 79.994C334.64 79.994 333.996 80.456 333.996 81.17V83.494C333.996 84.25 334.64 84.684 335.494 84.684ZM343.713 86.168C341.557 86.168 340.269 84.67 340.269 82.332C340.269 80.022 341.515 78.524 343.657 78.524C345.939 78.524 346.989 80.204 346.989 82.206V82.794H342.131V82.976C342.131 84.026 342.733 84.74 343.909 84.74C344.791 84.74 345.323 84.32 345.771 83.746L346.737 84.824C346.135 85.65 345.071 86.168 343.713 86.168ZM343.685 79.868C342.747 79.868 342.131 80.568 342.131 81.576V81.688H345.127V81.562C345.127 80.554 344.609 79.868 343.685 79.868ZM350.517 86H348.725V78.692H350.517V80.204H350.587C350.769 79.434 351.357 78.692 352.519 78.692H352.911V80.386H352.351C351.147 80.386 350.517 80.722 350.517 81.52V86ZM354.855 86V80.106H353.777V78.692H354.855V77.642C354.855 76.354 355.555 75.64 356.871 75.64H358.145V77.068H356.647V78.692H358.145V80.106H356.647V86H354.855ZM362.389 86.168C360.303 86.168 359.001 84.684 359.001 82.332C359.001 79.994 360.303 78.524 362.389 78.524C364.489 78.524 365.791 79.994 365.791 82.332C365.791 84.684 364.489 86.168 362.389 86.168ZM362.389 84.726C363.327 84.726 363.915 84.124 363.915 83.018V81.66C363.915 80.568 363.327 79.966 362.389 79.966C361.465 79.966 360.877 80.568 360.877 81.66V83.018C360.877 84.124 361.465 84.726 362.389 84.726ZM369.331 86H367.539V78.692H369.331V80.204H369.401C369.583 79.434 370.171 78.692 371.333 78.692H371.725V80.386H371.165C369.961 80.386 369.331 80.722 369.331 81.52V86ZM374.988 86H373.196V78.692H374.988V79.91H375.058C375.338 79.14 375.926 78.524 377.018 78.524C378.012 78.524 378.782 79.014 379.132 79.994H379.16C379.426 79.182 380.238 78.524 381.4 78.524C382.828 78.524 383.64 79.56 383.64 81.38V86H381.848V81.562C381.848 80.512 381.47 79.994 380.672 79.994C379.972 79.994 379.314 80.386 379.314 81.17V86H377.522V81.562C377.522 80.512 377.144 79.994 376.346 79.994C375.66 79.994 374.988 80.386 374.988 81.17V86ZM387.589 86.168C386.105 86.168 385.265 85.314 385.265 84.012C385.265 82.514 386.399 81.772 388.387 81.772H389.633V81.24C389.633 80.428 389.227 79.952 388.275 79.952C387.435 79.952 386.959 80.372 386.609 80.876L385.545 79.924C386.077 79.084 386.931 78.524 388.401 78.524C390.375 78.524 391.425 79.462 391.425 81.128V84.572H392.153V86H391.159C390.389 86 389.913 85.496 389.801 84.74H389.717C389.479 85.678 388.681 86.168 387.589 86.168ZM388.191 84.866C388.989 84.866 389.633 84.502 389.633 83.816V82.85H388.485C387.547 82.85 387.085 83.172 387.085 83.746V83.984C387.085 84.572 387.491 84.866 388.191 84.866ZM395.556 86H393.764V78.692H395.556V79.91H395.626C395.92 79.126 396.536 78.524 397.67 78.524C399.168 78.524 400.008 79.56 400.008 81.38V86H398.216V81.562C398.216 80.526 397.866 79.994 397.012 79.994C396.27 79.994 395.556 80.386 395.556 81.17V86ZM405.038 86.168C402.882 86.168 401.664 84.684 401.664 82.332C401.664 79.994 402.882 78.524 405.038 78.524C406.508 78.524 407.474 79.224 407.908 80.372L406.438 81.03C406.27 80.414 405.808 79.966 405.038 79.966C404.044 79.966 403.54 80.666 403.54 81.688V83.018C403.54 84.04 404.044 84.726 405.038 84.726C405.892 84.726 406.312 84.236 406.578 83.578L407.95 84.236C407.474 85.524 406.452 86.168 405.038 86.168ZM412.377 86.168C410.221 86.168 408.933 84.67 408.933 82.332C408.933 80.022 410.179 78.524 412.321 78.524C414.603 78.524 415.653 80.204 415.653 82.206V82.794H410.795V82.976C410.795 84.026 411.397 84.74 412.573 84.74C413.455 84.74 413.987 84.32 414.435 83.746L415.401 84.824C414.799 85.65 413.735 86.168 412.377 86.168ZM412.349 79.868C411.411 79.868 410.795 80.568 410.795 81.576V81.688H413.791V81.562C413.791 80.554 413.273 79.868 412.349 79.868ZM418.221 86.154C417.465 86.154 417.101 85.72 417.101 85.132V84.88C417.101 84.278 417.465 83.844 418.221 83.844C418.991 83.844 419.341 84.278 419.341 84.88V85.132C419.341 85.72 418.991 86.154 418.221 86.154Z" fill="#898787"/>
<rect width="478" height="92" transform="translate(13 100)" fill="white" style="mix-blend-mode:multiply"/>
<path d="M18.688 113H14.116V104.624H15.124V112.112H18.688V113ZM25.38 113H24.84C24.132 113 23.844 112.568 23.772 111.992H23.712C23.448 112.748 22.788 113.144 21.924 113.144C20.616 113.144 19.848 112.424 19.848 111.272C19.848 110.108 20.688 109.46 22.488 109.46H23.712V108.848C23.712 107.972 23.232 107.492 22.248 107.492C21.504 107.492 21.012 107.852 20.676 108.416L20.1 107.876C20.436 107.216 21.18 106.664 22.296 106.664C23.784 106.664 24.672 107.444 24.672 108.752V112.16H25.38V113ZM22.08 112.328C23.028 112.328 23.712 111.836 23.712 111.2V110.18H22.44C21.348 110.18 20.856 110.516 20.856 111.116V111.368C20.856 111.98 21.336 112.328 22.08 112.328ZM27.0702 113V104.12H28.0302V107.816H28.0782C28.4022 107.036 29.0382 106.664 29.8902 106.664C31.4382 106.664 32.4102 107.924 32.4102 109.904C32.4102 111.884 31.4382 113.144 29.8902 113.144C29.0382 113.144 28.4502 112.76 28.0782 111.992H28.0302V113H27.0702ZM29.6262 112.28C30.7062 112.28 31.3782 111.536 31.3782 110.432V109.376C31.3782 108.272 30.7062 107.528 29.6262 107.528C28.7502 107.528 28.0302 108.032 28.0302 108.716V111.02C28.0302 111.824 28.7502 112.28 29.6262 112.28ZM36.6791 113.144C34.9991 113.144 33.8951 111.872 33.8951 109.904C33.8951 107.936 34.9991 106.664 36.6791 106.664C38.3351 106.664 39.3551 107.936 39.3551 109.688V110.144H34.9031V110.432C34.9031 111.5 35.5871 112.304 36.7391 112.304C37.5191 112.304 38.1191 111.92 38.4431 111.236L39.1271 111.728C38.7311 112.568 37.8431 113.144 36.6791 113.144ZM36.6791 107.468C35.6351 107.468 34.9031 108.26 34.9031 109.34V109.424H38.3231V109.292C38.3231 108.2 37.6631 107.468 36.6791 107.468ZM43.129 113H42.277C41.617 113 41.257 112.58 41.257 112.004V104.12H42.217V112.16H43.129V113Z" fill="#525252"/>
<g filter="url(#filter0_i_8_178672)">
<rect width="478" height="48" transform="translate(13 124)" fill="white"/>
<g clip-path="url(#clip2_8_178672)">
<path d="M33.956 153H32.528L29.28 143.228H30.54L32.15 148.156L33.228 151.824H33.298L34.404 148.156L36.028 143.228H37.246L33.956 153ZM41.1734 153.168C39.2134 153.168 37.9254 151.684 37.9254 149.388C37.9254 147.092 39.2134 145.608 41.1734 145.608C43.1054 145.608 44.2954 147.092 44.2954 149.136V149.668H39.1014V150.004C39.1014 151.25 39.8994 152.188 41.2434 152.188C42.1534 152.188 42.8534 151.74 43.2314 150.942L44.0294 151.516C43.5674 152.496 42.5314 153.168 41.1734 153.168ZM41.1734 146.546C39.9554 146.546 39.1014 147.47 39.1014 148.73V148.828H43.0914V148.674C43.0914 147.4 42.3214 146.546 41.1734 146.546ZM47.421 153H46.301V145.776H47.421V147.106H47.491C47.743 146.42 48.401 145.776 49.577 145.776H50.011V146.896H49.353C48.149 146.896 47.421 147.414 47.421 148.1V153ZM53.7716 153.168C52.4416 153.168 51.5596 152.608 50.9156 151.754L51.7136 151.11C52.2736 151.81 52.9456 152.216 53.8556 152.216C54.8076 152.216 55.3676 151.782 55.3676 151.04C55.3676 150.48 55.0596 150.046 54.1076 149.906L53.5336 149.822C52.2036 149.626 51.2096 149.08 51.2096 147.736C51.2096 146.308 52.3156 145.608 53.7856 145.608C54.9476 145.608 55.7176 146.042 56.3056 146.77L55.5636 147.442C55.2416 146.994 54.6256 146.56 53.7016 146.56C52.7776 146.56 52.2876 146.994 52.2876 147.68C52.2876 148.38 52.7776 148.66 53.6736 148.8L54.2336 148.884C55.8296 149.122 56.4456 149.822 56.4456 150.914C56.4456 152.314 55.4236 153.168 53.7716 153.168ZM59.1439 144.082C58.6679 144.082 58.4579 143.83 58.4579 143.452V143.27C58.4579 142.892 58.6679 142.64 59.1439 142.64C59.6199 142.64 59.8299 142.892 59.8299 143.27V143.452C59.8299 143.83 59.6199 144.082 59.1439 144.082ZM58.5839 153V145.776H59.7039V153H58.5839ZM64.9739 153.168C63.0419 153.168 61.7119 151.684 61.7119 149.388C61.7119 147.092 63.0419 145.608 64.9739 145.608C66.9059 145.608 68.2359 147.092 68.2359 149.388C68.2359 151.684 66.9059 153.168 64.9739 153.168ZM64.9739 152.174C66.1779 152.174 67.0319 151.432 67.0319 149.906V148.87C67.0319 147.344 66.1779 146.602 64.9739 146.602C63.7699 146.602 62.9159 147.344 62.9159 148.87V149.906C62.9159 151.432 63.7699 152.174 64.9739 152.174ZM71.3579 153H70.2379V145.776H71.3579V146.952H71.4139C71.7639 146.14 72.3799 145.608 73.4579 145.608C74.9419 145.608 75.8799 146.616 75.8799 148.366V153H74.7599V148.562C74.7599 147.274 74.1999 146.616 73.1219 146.616C72.2259 146.616 71.3579 147.064 71.3579 147.988V153ZM87.8715 153L84.3015 147.036L83.1255 144.866H83.0835V153H81.9355V143.228H83.2935L86.8635 149.192L88.0395 151.362H88.0815V143.228H89.2295V153H87.8715ZM96.334 153V151.824H96.278C95.998 152.51 95.452 153.168 94.248 153.168C92.764 153.168 91.812 152.16 91.812 150.41V145.776H92.932V150.214C92.932 151.502 93.506 152.16 94.584 152.16C95.466 152.16 96.334 151.726 96.334 150.774V145.776H97.454V153H96.334ZM101.119 153H99.999V145.776H101.119V146.952H101.175C101.497 146.21 102.001 145.608 103.121 145.608C104.073 145.608 104.941 146.042 105.333 147.078H105.361C105.627 146.294 106.327 145.608 107.559 145.608C109.029 145.608 109.911 146.616 109.911 148.366V153H108.791V148.562C108.791 147.288 108.301 146.616 107.209 146.616C106.327 146.616 105.515 147.064 105.515 147.988V153H104.395V148.562C104.395 147.274 103.905 146.616 102.841 146.616C101.959 146.616 101.119 147.064 101.119 147.988V153ZM112.382 153V142.64H113.502V146.952H113.558C113.936 146.042 114.678 145.608 115.672 145.608C117.478 145.608 118.612 147.078 118.612 149.388C118.612 151.698 117.478 153.168 115.672 153.168C114.678 153.168 113.992 152.72 113.558 151.824H113.502V153H112.382ZM115.364 152.16C116.624 152.16 117.408 151.292 117.408 150.004V148.772C117.408 147.484 116.624 146.616 115.364 146.616C114.342 146.616 113.502 147.204 113.502 148.002V150.69C113.502 151.628 114.342 152.16 115.364 152.16ZM123.379 153.168C121.419 153.168 120.131 151.684 120.131 149.388C120.131 147.092 121.419 145.608 123.379 145.608C125.311 145.608 126.501 147.092 126.501 149.136V149.668H121.307V150.004C121.307 151.25 122.105 152.188 123.449 152.188C124.359 152.188 125.059 151.74 125.437 150.942L126.235 151.516C125.773 152.496 124.737 153.168 123.379 153.168ZM123.379 146.546C122.161 146.546 121.307 147.47 121.307 148.73V148.828H125.297V148.674C125.297 147.4 124.527 146.546 123.379 146.546ZM129.626 153H128.506V145.776H129.626V147.106H129.696C129.948 146.42 130.606 145.776 131.782 145.776H132.216V146.896H131.558C130.354 146.896 129.626 147.414 129.626 148.1V153ZM137.248 148.632C137.248 145.93 138.354 143.578 139.782 142.36H140.846C139.292 143.76 138.298 146.084 138.298 148.044V149.248C138.298 151.208 139.334 153.574 140.846 154.918H139.782C138.396 153.742 137.248 151.362 137.248 148.632ZM142.125 155.8V145.776H143.245V146.952H143.301C143.679 146.042 144.421 145.608 145.415 145.608C147.221 145.608 148.355 147.078 148.355 149.388C148.355 151.698 147.221 153.168 145.415 153.168C144.421 153.168 143.735 152.72 143.301 151.824H143.245V155.8H142.125ZM145.107 152.16C146.367 152.16 147.151 151.292 147.151 150.004V148.772C147.151 147.484 146.367 146.616 145.107 146.616C144.085 146.616 143.245 147.204 143.245 148.002V150.69C143.245 151.628 144.085 152.16 145.107 152.16ZM151.526 153H150.406V145.776H151.526V147.106H151.596C151.848 146.42 152.506 145.776 153.682 145.776H154.116V146.896H153.458C152.254 146.896 151.526 147.414 151.526 148.1V153ZM158.354 153.168C156.394 153.168 155.106 151.684 155.106 149.388C155.106 147.092 156.394 145.608 158.354 145.608C160.286 145.608 161.476 147.092 161.476 149.136V149.668H156.282V150.004C156.282 151.25 157.08 152.188 158.424 152.188C159.334 152.188 160.034 151.74 160.412 150.942L161.21 151.516C160.748 152.496 159.712 153.168 158.354 153.168ZM158.354 146.546C157.136 146.546 156.282 147.47 156.282 148.73V148.828H160.272V148.674C160.272 147.4 159.502 146.546 158.354 146.546ZM163.874 153V146.756H162.698V145.776H163.874V144.32C163.874 143.326 164.392 142.64 165.456 142.64H166.548V143.62H164.994V145.776H166.548V146.756H164.994V153H163.874ZM170.842 153.168C168.882 153.168 167.594 151.684 167.594 149.388C167.594 147.092 168.882 145.608 170.842 145.608C172.774 145.608 173.964 147.092 173.964 149.136V149.668H168.77V150.004C168.77 151.25 169.568 152.188 170.912 152.188C171.822 152.188 172.522 151.74 172.9 150.942L173.698 151.516C173.236 152.496 172.2 153.168 170.842 153.168ZM170.842 146.546C169.624 146.546 168.77 147.47 168.77 148.73V148.828H172.76V148.674C172.76 147.4 171.99 146.546 170.842 146.546ZM177.09 153H175.97V145.776H177.09V147.106H177.16C177.412 146.42 178.07 145.776 179.246 145.776H179.68V146.896H179.022C177.818 146.896 177.09 147.414 177.09 148.1V153ZM182.391 153H181.271V145.776H182.391V147.106H182.461C182.713 146.42 183.371 145.776 184.547 145.776H184.981V146.896H184.323C183.119 146.896 182.391 147.414 182.391 148.1V153ZM189.219 153.168C187.259 153.168 185.971 151.684 185.971 149.388C185.971 147.092 187.259 145.608 189.219 145.608C191.151 145.608 192.341 147.092 192.341 149.136V149.668H187.147V150.004C187.147 151.25 187.945 152.188 189.289 152.188C190.199 152.188 190.899 151.74 191.277 150.942L192.075 151.516C191.613 152.496 190.577 153.168 189.219 153.168ZM189.219 146.546C188.001 146.546 187.147 147.47 187.147 148.73V148.828H191.137V148.674C191.137 147.4 190.367 146.546 189.219 146.546ZM198.966 153V151.824H198.91C198.476 152.72 197.79 153.168 196.796 153.168C194.99 153.168 193.856 151.698 193.856 149.388C193.856 147.078 194.99 145.608 196.796 145.608C197.79 145.608 198.532 146.042 198.91 146.952H198.966V142.64H200.086V153H198.966ZM197.104 152.16C198.126 152.16 198.966 151.628 198.966 150.69V148.002C198.966 147.204 198.126 146.616 197.104 146.616C195.844 146.616 195.06 147.484 195.06 148.772V150.004C195.06 151.292 195.844 152.16 197.104 152.16ZM204.966 148.632C204.966 151.362 203.818 153.742 202.432 154.918H201.367C202.88 153.574 203.916 151.208 203.916 149.248V148.044C203.916 146.084 202.922 143.76 201.367 142.36H202.432C203.86 143.578 204.966 145.93 204.966 148.632Z" fill="#161616"/>
</g>
<rect width="16" height="16" transform="translate(459 140)" fill="white" style="mix-blend-mode:multiply"/>
<path d="M467 151L462 146L462.7 145.3L467 149.6L471.3 145.3L472 146L467 151Z" fill="#161616"/>
</g>
<defs>
<filter id="filter0_i_8_178672" x="13" y="124" width="478" height="48" filterUnits="userSpaceOnUse" color-interpolation-filters="sRGB">
<feFlood flood-opacity="0" result="BackgroundImageFix"/>
<feBlend mode="normal" in="SourceGraphic" in2="BackgroundImageFix" result="shape"/>
<feColorMatrix in="SourceAlpha" type="matrix" values="0 0 0 0 0 0 0 0 0 0 0 0 0 0 0 0 0 0 127 0" result="hardAlpha"/>
<feOffset dy="-1"/>
<feComposite in2="hardAlpha" operator="arithmetic" k2="-1" k3="1"/>
<feColorMatrix type="matrix" values="0 0 0 0 0.552941 0 0 0 0 0.552941 0 0 0 0 0.552941 0 0 0 1 0"/>
<feBlend mode="normal" in2="shape" result="effect1_innerShadow_8_178672"/>
</filter>
<clipPath id="clip0_8_178672">
<rect width="496" height="248" fill="white"/>
</clipPath>
<clipPath id="clip1_8_178672">
<rect width="496" height="48" fill="white"/>
</clipPath>
<clipPath id="clip2_8_178672">
<rect width="414" height="18" fill="white" transform="translate(29 139)"/>
</clipPath>
</defs>
</svg>
