<svg width="498" height="204" viewBox="0 0 498 204" fill="none" xmlns="http://www.w3.org/2000/svg">
<path d="M5.78 22.24C3.54 22.24 1.96 21.32 0.84 19.8L2.08 18.76C3.06 20.06 4.22 20.76 5.84 20.76C7.84 20.76 8.92 19.72 8.92 18.12C8.92 16.8 8.18 16.14 6.34 15.72L5.2 15.46C2.66 14.88 1.26 13.76 1.26 11.62C1.26 9.14 3.14 7.8 5.88 7.8C7.98 7.8 9.46 8.6 10.5 10.08L9.24 11C8.48 9.94 7.42 9.28 5.8 9.28C4.02 9.28 2.92 10.06 2.92 11.56C2.92 12.88 3.78 13.48 5.54 13.88L6.68 14.14C9.4 14.76 10.58 15.96 10.58 18.04C10.58 20.6 8.78 22.24 5.78 22.24ZM17.2011 22.24C14.4011 22.24 12.5611 20.12 12.5611 16.84C12.5611 13.56 14.4011 11.44 17.2011 11.44C19.9611 11.44 21.6611 13.56 21.6611 16.48V17.24H14.2411V17.72C14.2411 19.5 15.3811 20.84 17.3011 20.84C18.6011 20.84 19.6011 20.2 20.1411 19.06L21.2811 19.88C20.6211 21.28 19.1411 22.24 17.2011 22.24ZM17.2011 12.78C15.4611 12.78 14.2411 14.1 14.2411 15.9V16.04H19.9411V15.82C19.9411 14 18.8411 12.78 17.2011 12.78ZM25.8977 22H24.2977V11.68H25.8977V13.58H25.9977C26.3577 12.6 27.2977 11.68 28.9777 11.68H29.5977V13.28H28.6577C26.9377 13.28 25.8977 14.02 25.8977 15V22ZM35.9767 22H34.1167L30.4967 11.68H32.0967L33.8967 16.8L35.0167 20.32H35.1167L36.2367 16.8L38.0767 11.68H39.6167L35.9767 22ZM42.4805 9.26C41.8005 9.26 41.5005 8.9 41.5005 8.36V8.1C41.5005 7.56 41.8005 7.2 42.4805 7.2C43.1605 7.2 43.4605 7.56 43.4605 8.1V8.36C43.4605 8.9 43.1605 9.26 42.4805 9.26ZM41.6805 22V11.68H43.2805V22H41.6805ZM50.5205 22.24C47.6205 22.24 45.9205 20.14 45.9205 16.84C45.9205 13.54 47.6205 11.44 50.5205 11.44C52.5605 11.44 53.7805 12.44 54.3805 13.86L53.0405 14.54C52.6605 13.48 51.7805 12.86 50.5205 12.86C48.6205 12.86 47.6405 14.16 47.6405 15.96V17.72C47.6405 19.52 48.6205 20.82 50.5205 20.82C51.8205 20.82 52.7605 20.2 53.3205 19.02L54.4805 19.8C53.8205 21.28 52.4805 22.24 50.5205 22.24ZM60.5019 22.24C57.7019 22.24 55.8619 20.12 55.8619 16.84C55.8619 13.56 57.7019 11.44 60.5019 11.44C63.2619 11.44 64.9619 13.56 64.9619 16.48V17.24H57.5419V17.72C57.5419 19.5 58.6819 20.84 60.6019 20.84C61.9019 20.84 62.9019 20.2 63.4419 19.06L64.5819 19.88C63.9219 21.28 62.4419 22.24 60.5019 22.24ZM60.5019 12.78C58.7619 12.78 57.5419 14.1 57.5419 15.9V16.04H63.2419V15.82C63.2419 14 62.1419 12.78 60.5019 12.78ZM72.485 22V8.04H77.165C80.645 8.04 82.885 10.36 82.885 15.02C82.885 19.68 80.645 22 77.165 22H72.485ZM74.165 20.52H77.165C79.465 20.52 81.085 18.92 81.085 16.16V13.88C81.085 11.12 79.465 9.52 77.165 9.52H74.165V20.52ZM89.623 22.24C86.823 22.24 84.983 20.12 84.983 16.84C84.983 13.56 86.823 11.44 89.623 11.44C92.383 11.44 94.083 13.56 94.083 16.48V17.24H86.663V17.72C86.663 19.5 87.803 20.84 89.723 20.84C91.023 20.84 92.023 20.2 92.563 19.06L93.703 19.88C93.043 21.28 91.563 22.24 89.623 22.24ZM89.623 12.78C87.883 12.78 86.663 14.1 86.663 15.9V16.04H92.363V15.82C92.363 14 91.263 12.78 89.623 12.78ZM101 22H98.9995C97.8995 22 97.2995 21.3 97.2995 20.3V13.08H95.5995V11.68H96.5595C97.2395 11.68 97.4595 11.44 97.4595 10.74V8.82H98.8995V11.68H101.16V13.08H98.8995V20.6H101V22ZM112.131 22H111.231C110.051 22 109.571 21.28 109.451 20.32H109.351C108.911 21.58 107.811 22.24 106.371 22.24C104.191 22.24 102.911 21.04 102.911 19.12C102.911 17.18 104.311 16.1 107.311 16.1H109.351V15.08C109.351 13.62 108.551 12.82 106.911 12.82C105.671 12.82 104.851 13.42 104.291 14.36L103.331 13.46C103.891 12.36 105.131 11.44 106.991 11.44C109.471 11.44 110.951 12.74 110.951 14.92V20.6H112.131V22ZM106.631 20.88C108.211 20.88 109.351 20.06 109.351 19V17.3H107.231C105.411 17.3 104.591 17.86 104.591 18.86V19.28C104.591 20.3 105.391 20.88 106.631 20.88ZM115.215 9.26C114.535 9.26 114.235 8.9 114.235 8.36V8.1C114.235 7.56 114.535 7.2 115.215 7.2C115.895 7.2 116.195 7.56 116.195 8.1V8.36C116.195 8.9 115.895 9.26 115.215 9.26ZM114.415 22V11.68H116.015V22H114.415ZM122.535 22H121.115C120.015 22 119.415 21.3 119.415 20.34V7.2H121.015V20.6H122.535V22ZM127.964 22.24C126.064 22.24 124.804 21.44 123.884 20.22L125.024 19.3C125.824 20.3 126.784 20.88 128.084 20.88C129.444 20.88 130.244 20.26 130.244 19.2C130.244 18.4 129.804 17.78 128.444 17.58L127.624 17.46C125.724 17.18 124.304 16.4 124.304 14.48C124.304 12.44 125.884 11.44 127.984 11.44C129.644 11.44 130.744 12.06 131.584 13.1L130.524 14.06C130.064 13.42 129.184 12.8 127.864 12.8C126.544 12.8 125.844 13.42 125.844 14.4C125.844 15.4 126.544 15.8 127.824 16L128.624 16.12C130.904 16.46 131.784 17.46 131.784 19.02C131.784 21.02 130.324 22.24 127.964 22.24Z" fill="#161616"/>
<rect width="498" height="64" transform="translate(0 52)" fill="white" style="mix-blend-mode:multiply"/>
<path d="M3.468 65.144C2.124 65.144 1.176 64.592 0.504 63.68L1.248 63.056C1.836 63.836 2.532 64.256 3.504 64.256C4.704 64.256 5.352 63.632 5.352 62.672C5.352 61.88 4.908 61.484 3.804 61.232L3.12 61.076C1.596 60.728 0.756 60.056 0.756 58.772C0.756 57.284 1.884 56.48 3.528 56.48C4.788 56.48 5.676 56.96 6.3 57.848L5.544 58.4C5.088 57.764 4.452 57.368 3.48 57.368C2.412 57.368 1.752 57.836 1.752 58.736C1.752 59.528 2.268 59.888 3.324 60.128L4.008 60.284C5.64 60.656 6.348 61.376 6.348 62.624C6.348 64.16 5.268 65.144 3.468 65.144ZM10.6407 65.144C8.96066 65.144 7.85666 63.872 7.85666 61.904C7.85666 59.936 8.96066 58.664 10.6407 58.664C12.2967 58.664 13.3167 59.936 13.3167 61.688V62.144H8.86466V62.432C8.86466 63.5 9.54866 64.304 10.7007 64.304C11.4807 64.304 12.0807 63.92 12.4047 63.236L13.0887 63.728C12.6927 64.568 11.8047 65.144 10.6407 65.144ZM10.6407 59.468C9.59666 59.468 8.86466 60.26 8.86466 61.34V61.424H12.2847V61.292C12.2847 60.2 11.6247 59.468 10.6407 59.468ZM16.1786 65H15.2186V58.808H16.1786V59.948H16.2386C16.4546 59.36 17.0186 58.808 18.0266 58.808H18.3986V59.768H17.8346C16.8026 59.768 16.1786 60.212 16.1786 60.8V65ZM22.546 65H21.43L19.258 58.808H20.218L21.298 61.88L21.97 63.992H22.03L22.702 61.88L23.806 58.808H24.73L22.546 65ZM26.7683 57.356C26.3603 57.356 26.1803 57.14 26.1803 56.816V56.66C26.1803 56.336 26.3603 56.12 26.7683 56.12C27.1763 56.12 27.3563 56.336 27.3563 56.66V56.816C27.3563 57.14 27.1763 57.356 26.7683 57.356ZM26.2883 65V58.808H27.2483V65H26.2883ZM31.9123 65.144C30.1723 65.144 29.1523 63.884 29.1523 61.904C29.1523 59.924 30.1723 58.664 31.9123 58.664C33.1363 58.664 33.8683 59.264 34.2283 60.116L33.4243 60.524C33.1963 59.888 32.6683 59.516 31.9123 59.516C30.7723 59.516 30.1843 60.296 30.1843 61.376V62.432C30.1843 63.512 30.7723 64.292 31.9123 64.292C32.6923 64.292 33.2563 63.92 33.5923 63.212L34.2883 63.68C33.8923 64.568 33.0883 65.144 31.9123 65.144ZM38.2211 65.144C36.5411 65.144 35.4371 63.872 35.4371 61.904C35.4371 59.936 36.5411 58.664 38.2211 58.664C39.8771 58.664 40.8971 59.936 40.8971 61.688V62.144H36.4451V62.432C36.4451 63.5 37.1291 64.304 38.2811 64.304C39.0611 64.304 39.6611 63.92 39.9851 63.236L40.6691 63.728C40.2731 64.568 39.3851 65.144 38.2211 65.144ZM38.2211 59.468C37.1771 59.468 36.4451 60.26 36.4451 61.34V61.424H39.8651V61.292C39.8651 60.2 39.2051 59.468 38.2211 59.468ZM51.139 65L48.079 59.888L47.071 58.028H47.035V65H46.051V56.624H47.215L50.275 61.736L51.283 63.596H51.319V56.624H52.303V65H51.139ZM59.7994 65H59.2594C58.5514 65 58.2634 64.568 58.1914 63.992H58.1314C57.8674 64.748 57.2074 65.144 56.3434 65.144C55.0354 65.144 54.2674 64.424 54.2674 63.272C54.2674 62.108 55.1074 61.46 56.9074 61.46H58.1314V60.848C58.1314 59.972 57.6514 59.492 56.6674 59.492C55.9234 59.492 55.4314 59.852 55.0954 60.416L54.5194 59.876C54.8554 59.216 55.5994 58.664 56.7154 58.664C58.2034 58.664 59.0914 59.444 59.0914 60.752V64.16H59.7994V65ZM56.4994 64.328C57.4474 64.328 58.1314 63.836 58.1314 63.2V62.18H56.8594C55.7674 62.18 55.2754 62.516 55.2754 63.116V63.368C55.2754 63.98 55.7554 64.328 56.4994 64.328ZM62.4495 65H61.4895V58.808H62.4495V59.816H62.4975C62.7735 59.18 63.2055 58.664 64.1655 58.664C64.9815 58.664 65.7255 59.036 66.0615 59.924H66.0855C66.3135 59.252 66.9135 58.664 67.9695 58.664C69.2295 58.664 69.9855 59.528 69.9855 61.028V65H69.0255V61.196C69.0255 60.104 68.6055 59.528 67.6695 59.528C66.9135 59.528 66.2175 59.912 66.2175 60.704V65H65.2575V61.196C65.2575 60.092 64.8375 59.528 63.9255 59.528C63.1695 59.528 62.4495 59.912 62.4495 60.704V65ZM74.6141 65.144C72.9341 65.144 71.8301 63.872 71.8301 61.904C71.8301 59.936 72.9341 58.664 74.6141 58.664C76.2701 58.664 77.2901 59.936 77.2901 61.688V62.144H72.8381V62.432C72.8381 63.5 73.5221 64.304 74.6741 64.304C75.4541 64.304 76.0541 63.92 76.3781 63.236L77.0621 63.728C76.6661 64.568 75.7781 65.144 74.6141 65.144ZM74.6141 59.468C73.5701 59.468 72.8381 60.26 72.8381 61.34V61.424H76.2581V61.292C76.2581 60.2 75.5981 59.468 74.6141 59.468Z" fill="#525252"/>
<g filter="url(#filter0_i_8_89602)">
<rect width="498" height="40" transform="translate(0 76)" fill="white"/>
<g clip-path="url(#clip0_8_89602)">
<path d="M17.302 102V92.228H20.578C23.014 92.228 24.582 93.852 24.582 97.114C24.582 100.376 23.014 102 20.578 102H17.302ZM18.478 100.964H20.578C22.188 100.964 23.322 99.844 23.322 97.912V96.316C23.322 94.384 22.188 93.264 20.578 93.264H18.478V100.964ZM32.6226 102H31.9926C31.1666 102 30.8306 101.496 30.7466 100.824H30.6766C30.3686 101.706 29.5986 102.168 28.5906 102.168C27.0646 102.168 26.1686 101.328 26.1686 99.984C26.1686 98.626 27.1486 97.87 29.2486 97.87H30.6766V97.156C30.6766 96.134 30.1166 95.574 28.9686 95.574C28.1006 95.574 27.5266 95.994 27.1346 96.652L26.4626 96.022C26.8546 95.252 27.7226 94.608 29.0246 94.608C30.7606 94.608 31.7966 95.518 31.7966 97.044V101.02H32.6226V102ZM28.7726 101.216C29.8786 101.216 30.6766 100.642 30.6766 99.9V98.71H29.1926C27.9186 98.71 27.3446 99.102 27.3446 99.802V100.096C27.3446 100.81 27.9046 101.216 28.7726 101.216ZM37.3771 102H35.9771C35.2071 102 34.7871 101.51 34.7871 100.81V95.756H33.5971V94.776H34.2691C34.7451 94.776 34.8991 94.608 34.8991 94.118V92.774H35.9071V94.776H37.4891V95.756H35.9071V101.02H37.3771V102ZM45.3293 102H44.6993C43.8733 102 43.5373 101.496 43.4533 100.824H43.3833C43.0753 101.706 42.3053 102.168 41.2973 102.168C39.7713 102.168 38.8753 101.328 38.8753 99.984C38.8753 98.626 39.8553 97.87 41.9553 97.87H43.3833V97.156C43.3833 96.134 42.8233 95.574 41.6753 95.574C40.8073 95.574 40.2333 95.994 39.8413 96.652L39.1693 96.022C39.5613 95.252 40.4293 94.608 41.7313 94.608C43.4673 94.608 44.5033 95.518 44.5033 97.044V101.02H45.3293V102ZM41.4793 101.216C42.5853 101.216 43.3833 100.642 43.3833 99.9V98.71H41.8993C40.6253 98.71 40.0513 99.102 40.0513 99.802V100.096C40.0513 100.81 40.6113 101.216 41.4793 101.216ZM47.0878 102V91.64H48.2078V95.952H48.2638C48.6418 95.042 49.3838 94.608 50.3778 94.608C52.1838 94.608 53.3178 96.078 53.3178 98.388C53.3178 100.698 52.1838 102.168 50.3778 102.168C49.3838 102.168 48.6978 101.72 48.2638 100.824H48.2078V102H47.0878ZM50.0698 101.16C51.3298 101.16 52.1138 100.292 52.1138 99.004V97.772C52.1138 96.484 51.3298 95.616 50.0698 95.616C49.0478 95.616 48.2078 96.204 48.2078 97.002V99.69C48.2078 100.628 49.0478 101.16 50.0698 101.16ZM61.2489 102H60.6189C59.7929 102 59.4569 101.496 59.3729 100.824H59.3029C58.9949 101.706 58.2249 102.168 57.2169 102.168C55.6909 102.168 54.7949 101.328 54.7949 99.984C54.7949 98.626 55.7749 97.87 57.8749 97.87H59.3029V97.156C59.3029 96.134 58.7429 95.574 57.5949 95.574C56.7269 95.574 56.1529 95.994 55.7609 96.652L55.0889 96.022C55.4809 95.252 56.3489 94.608 57.6509 94.608C59.3869 94.608 60.4229 95.518 60.4229 97.044V101.02H61.2489V102ZM57.3989 101.216C58.5049 101.216 59.3029 100.642 59.3029 99.9V98.71H57.8189C56.5449 98.71 55.9709 99.102 55.9709 99.802V100.096C55.9709 100.81 56.5309 101.216 57.3989 101.216ZM65.1774 102.168C63.8474 102.168 62.9654 101.608 62.3214 100.754L63.1194 100.11C63.6794 100.81 64.3514 101.216 65.2614 101.216C66.2134 101.216 66.7734 100.782 66.7734 100.04C66.7734 99.48 66.4654 99.046 65.5134 98.906L64.9394 98.822C63.6094 98.626 62.6154 98.08 62.6154 96.736C62.6154 95.308 63.7214 94.608 65.1914 94.608C66.3534 94.608 67.1234 95.042 67.7114 95.77L66.9694 96.442C66.6474 95.994 66.0314 95.56 65.1074 95.56C64.1834 95.56 63.6934 95.994 63.6934 96.68C63.6934 97.38 64.1834 97.66 65.0794 97.8L65.6394 97.884C67.2354 98.122 67.8514 98.822 67.8514 99.914C67.8514 101.314 66.8294 102.168 65.1774 102.168ZM72.7057 102.168C70.7457 102.168 69.4577 100.684 69.4577 98.388C69.4577 96.092 70.7457 94.608 72.7057 94.608C74.6377 94.608 75.8277 96.092 75.8277 98.136V98.668H70.6337V99.004C70.6337 100.25 71.4317 101.188 72.7757 101.188C73.6857 101.188 74.3857 100.74 74.7637 99.942L75.5617 100.516C75.0997 101.496 74.0637 102.168 72.7057 102.168ZM72.7057 95.546C71.4877 95.546 70.6337 96.47 70.6337 97.73V97.828H74.6237V97.674C74.6237 96.4 73.8537 95.546 72.7057 95.546ZM80.0033 102.168C78.6733 102.168 77.7913 101.608 77.1473 100.754L77.9453 100.11C78.5053 100.81 79.1773 101.216 80.0873 101.216C81.0393 101.216 81.5993 100.782 81.5993 100.04C81.5993 99.48 81.2913 99.046 80.3393 98.906L79.7653 98.822C78.4353 98.626 77.4413 98.08 77.4413 96.736C77.4413 95.308 78.5473 94.608 80.0173 94.608C81.1793 94.608 81.9493 95.042 82.5373 95.77L81.7953 96.442C81.4733 95.994 80.8573 95.56 79.9333 95.56C79.0093 95.56 78.5193 95.994 78.5193 96.68C78.5193 97.38 79.0093 97.66 79.9053 97.8L80.4653 97.884C82.0613 98.122 82.6773 98.822 82.6773 99.914C82.6773 101.314 81.6553 102.168 80.0033 102.168ZM88.6761 102V95.756H87.5001V94.776H88.6761V93.32C88.6761 92.326 89.1941 91.64 90.2581 91.64H91.3501V92.62H89.7961V94.776H91.3501V95.756H89.7961V102H88.6761ZM95.6585 102.168C93.7265 102.168 92.3965 100.684 92.3965 98.388C92.3965 96.092 93.7265 94.608 95.6585 94.608C97.5905 94.608 98.9205 96.092 98.9205 98.388C98.9205 100.684 97.5905 102.168 95.6585 102.168ZM95.6585 101.174C96.8625 101.174 97.7165 100.432 97.7165 98.906V97.87C97.7165 96.344 96.8625 95.602 95.6585 95.602C94.4545 95.602 93.6005 96.344 93.6005 97.87V98.906C93.6005 100.432 94.4545 101.174 95.6585 101.174ZM102.042 102H100.922V94.776H102.042V96.106H102.112C102.364 95.42 103.022 94.776 104.198 94.776H104.632V95.896H103.974C102.77 95.896 102.042 96.414 102.042 97.1V102ZM109.804 102V92.228H111.372L114.172 97.492H114.242L117.056 92.228H118.568V102H117.42V93.768H117.35L116.524 95.406L114.186 99.662L111.848 95.406L111.022 93.768H110.952V102H109.804ZM123.915 99.69L125.665 94.776H126.771L123.537 103.68C123.215 104.548 122.921 104.8 121.857 104.8H121.283V103.82H122.417L122.963 102.28L120.261 94.776H121.381L123.117 99.69L123.453 100.866H123.523L123.915 99.69ZM131.215 102.168C129.647 102.168 128.541 101.524 127.757 100.46L128.625 99.732C129.311 100.642 130.123 101.132 131.257 101.132C132.657 101.132 133.413 100.404 133.413 99.284C133.413 98.36 132.895 97.898 131.607 97.604L130.809 97.422C129.031 97.016 128.051 96.232 128.051 94.734C128.051 92.998 129.367 92.06 131.285 92.06C132.755 92.06 133.791 92.62 134.519 93.656L133.637 94.3C133.105 93.558 132.363 93.096 131.229 93.096C129.983 93.096 129.213 93.642 129.213 94.692C129.213 95.616 129.815 96.036 131.047 96.316L131.845 96.498C133.749 96.932 134.575 97.772 134.575 99.228C134.575 101.02 133.315 102.168 131.215 102.168ZM142.576 103.316V104.296H141.134C140.364 104.296 139.958 103.806 139.958 103.148V102.154C137.704 101.944 136.276 100.18 136.276 97.114C136.276 93.838 137.9 92.06 140.42 92.06C142.94 92.06 144.564 93.838 144.564 97.114C144.564 100.096 143.22 101.832 141.078 102.126V103.316H142.576ZM140.42 101.118C142.114 101.118 143.304 99.858 143.304 97.926V96.302C143.304 94.37 142.114 93.11 140.42 93.11C138.726 93.11 137.536 94.37 137.536 96.302V97.926C137.536 99.858 138.726 101.118 140.42 101.118ZM152.172 102H146.838V92.228H148.014V100.964H152.172V102ZM156.769 98.346H153.115V97.142H156.769V98.346ZM160.211 102H159.091V94.776H160.211V95.952H160.267C160.589 95.21 161.093 94.608 162.213 94.608C163.165 94.608 164.033 95.042 164.425 96.078H164.453C164.719 95.294 165.419 94.608 166.651 94.608C168.121 94.608 169.003 95.616 169.003 97.366V102H167.883V97.562C167.883 96.288 167.393 95.616 166.301 95.616C165.419 95.616 164.607 96.064 164.607 96.988V102H163.487V97.562C163.487 96.274 162.997 95.616 161.933 95.616C161.051 95.616 160.211 96.064 160.211 96.988V102ZM173.644 102.168C172.314 102.168 171.432 101.608 170.788 100.754L171.586 100.11C172.146 100.81 172.818 101.216 173.728 101.216C174.68 101.216 175.24 100.782 175.24 100.04C175.24 99.48 174.932 99.046 173.98 98.906L173.406 98.822C172.076 98.626 171.082 98.08 171.082 96.736C171.082 95.308 172.188 94.608 173.658 94.608C174.82 94.608 175.59 95.042 176.178 95.77L175.436 96.442C175.114 95.994 174.498 95.56 173.574 95.56C172.65 95.56 172.16 95.994 172.16 96.68C172.16 97.38 172.65 97.66 173.546 97.8L174.106 97.884C175.702 98.122 176.318 98.822 176.318 99.914C176.318 101.314 175.296 102.168 173.644 102.168Z" fill="#003A6D"/>
</g>
</g>
<rect width="498" height="64" transform="translate(0 140)" fill="white" style="mix-blend-mode:multiply"/>
<path d="M5.688 153H1.116V144.624H2.124V152.112H5.688V153ZM9.57453 153.144C7.91853 153.144 6.77853 151.872 6.77853 149.904C6.77853 147.936 7.91853 146.664 9.57453 146.664C11.2305 146.664 12.3705 147.936 12.3705 149.904C12.3705 151.872 11.2305 153.144 9.57453 153.144ZM9.57453 152.292C10.6065 152.292 11.3385 151.656 11.3385 150.348V149.46C11.3385 148.152 10.6065 147.516 9.57453 147.516C8.54253 147.516 7.81053 148.152 7.81053 149.46V150.348C7.81053 151.656 8.54253 152.292 9.57453 152.292ZM16.5734 153.144C14.8334 153.144 13.8134 151.884 13.8134 149.904C13.8134 147.924 14.8334 146.664 16.5734 146.664C17.7974 146.664 18.5294 147.264 18.8894 148.116L18.0854 148.524C17.8574 147.888 17.3294 147.516 16.5734 147.516C15.4334 147.516 14.8454 148.296 14.8454 149.376V150.432C14.8454 151.512 15.4334 152.292 16.5734 152.292C17.3534 152.292 17.9174 151.92 18.2534 151.212L18.9494 151.68C18.5534 152.568 17.7494 153.144 16.5734 153.144ZM25.6645 153H25.1245C24.4165 153 24.1285 152.568 24.0565 151.992H23.9965C23.7325 152.748 23.0725 153.144 22.2085 153.144C20.9005 153.144 20.1325 152.424 20.1325 151.272C20.1325 150.108 20.9725 149.46 22.7725 149.46H23.9965V148.848C23.9965 147.972 23.5165 147.492 22.5325 147.492C21.7885 147.492 21.2965 147.852 20.9605 148.416L20.3845 147.876C20.7205 147.216 21.4645 146.664 22.5805 146.664C24.0685 146.664 24.9565 147.444 24.9565 148.752V152.16H25.6645V153ZM22.3645 152.328C23.3125 152.328 23.9965 151.836 23.9965 151.2V150.18H22.7245C21.6325 150.18 21.1405 150.516 21.1405 151.116V151.368C21.1405 151.98 21.6205 152.328 22.3645 152.328ZM29.9227 153H28.7227C28.0627 153 27.7027 152.58 27.7027 151.98V147.648H26.6827V146.808H27.2587C27.6667 146.808 27.7987 146.664 27.7987 146.244V145.092H28.6627V146.808H30.0187V147.648H28.6627V152.16H29.9227V153ZM32.3617 145.356C31.9537 145.356 31.7737 145.14 31.7737 144.816V144.66C31.7737 144.336 31.9537 144.12 32.3617 144.12C32.7697 144.12 32.9497 144.336 32.9497 144.66V144.816C32.9497 145.14 32.7697 145.356 32.3617 145.356ZM31.8817 153V146.808H32.8417V153H31.8817ZM37.5417 153.144C35.8857 153.144 34.7457 151.872 34.7457 149.904C34.7457 147.936 35.8857 146.664 37.5417 146.664C39.1977 146.664 40.3377 147.936 40.3377 149.904C40.3377 151.872 39.1977 153.144 37.5417 153.144ZM37.5417 152.292C38.5737 152.292 39.3057 151.656 39.3057 150.348V149.46C39.3057 148.152 38.5737 147.516 37.5417 147.516C36.5097 147.516 35.7777 148.152 35.7777 149.46V150.348C35.7777 151.656 36.5097 152.292 37.5417 152.292ZM43.1966 153H42.2366V146.808H43.1966V147.816H43.2446C43.5446 147.12 44.0726 146.664 44.9966 146.664C46.2686 146.664 47.0726 147.528 47.0726 149.028V153H46.1126V149.196C46.1126 148.092 45.6326 147.528 44.7086 147.528C43.9406 147.528 43.1966 147.912 43.1966 148.704V153Z" fill="#525252"/>
<g filter="url(#filter1_i_8_89602)">
<rect width="498" height="40" transform="translate(0 164)" fill="white"/>
<g clip-path="url(#clip1_8_89602)">
<path d="M19.962 189H18.66L16.28 179.228H17.526L18.576 183.932L19.388 187.586H19.416L20.326 183.932L21.558 179.228H22.902L24.092 183.932L25.002 187.572H25.044L25.884 183.932L26.99 179.228H28.194L25.688 189H24.386L23.112 184.128L22.216 180.544H22.188L21.264 184.128L19.962 189ZM35.562 189H34.932C34.106 189 33.77 188.496 33.686 187.824H33.616C33.308 188.706 32.538 189.168 31.53 189.168C30.004 189.168 29.108 188.328 29.108 186.984C29.108 185.626 30.088 184.87 32.188 184.87H33.616V184.156C33.616 183.134 33.056 182.574 31.908 182.574C31.04 182.574 30.466 182.994 30.074 183.652L29.402 183.022C29.794 182.252 30.662 181.608 31.964 181.608C33.7 181.608 34.736 182.518 34.736 184.044V188.02H35.562V189ZM31.712 188.216C32.818 188.216 33.616 187.642 33.616 186.9V185.71H32.132C30.858 185.71 30.284 186.102 30.284 186.802V187.096C30.284 187.81 30.844 188.216 31.712 188.216ZM39.4905 189.168C38.1605 189.168 37.2785 188.608 36.6345 187.754L37.4325 187.11C37.9925 187.81 38.6645 188.216 39.5745 188.216C40.5265 188.216 41.0865 187.782 41.0865 187.04C41.0865 186.48 40.7785 186.046 39.8265 185.906L39.2525 185.822C37.9225 185.626 36.9285 185.08 36.9285 183.736C36.9285 182.308 38.0345 181.608 39.5045 181.608C40.6665 181.608 41.4365 182.042 42.0245 182.77L41.2825 183.442C40.9605 182.994 40.3445 182.56 39.4205 182.56C38.4965 182.56 38.0065 182.994 38.0065 183.68C38.0065 184.38 38.4965 184.66 39.3925 184.8L39.9525 184.884C41.5485 185.122 42.1645 185.822 42.1645 186.914C42.1645 188.314 41.1425 189.168 39.4905 189.168ZM44.3028 189V178.64H45.4228V182.952H45.4788C45.8288 182.14 46.4448 181.608 47.5228 181.608C49.0068 181.608 49.9448 182.616 49.9448 184.366V189H48.8248V184.562C48.8248 183.274 48.2648 182.616 47.1868 182.616C46.2908 182.616 45.4228 183.064 45.4228 183.988V189H44.3028ZM52.9798 180.082C52.5038 180.082 52.2938 179.83 52.2938 179.452V179.27C52.2938 178.892 52.5038 178.64 52.9798 178.64C53.4558 178.64 53.6658 178.892 53.6658 179.27V179.452C53.6658 179.83 53.4558 180.082 52.9798 180.082ZM52.4198 189V181.776H53.5398V189H52.4198ZM57.1998 189H56.0798V181.776H57.1998V182.952H57.2558C57.6058 182.14 58.2218 181.608 59.2998 181.608C60.7838 181.608 61.7218 182.616 61.7218 184.366V189H60.6018V184.562C60.6018 183.274 60.0418 182.616 58.9638 182.616C58.0678 182.616 57.1998 183.064 57.1998 183.988V189ZM70.2869 189.798C70.2869 191.282 69.1109 191.968 66.7869 191.968C64.5329 191.968 63.6089 191.324 63.6089 190.19C63.6089 189.406 64.0429 188.986 64.7569 188.79V188.636C64.3509 188.44 64.1129 188.118 64.1129 187.628C64.1129 186.9 64.6309 186.55 65.3589 186.368V186.312C64.5049 185.906 64.0009 185.108 64.0009 184.1C64.0009 182.63 65.0789 181.608 66.7169 181.608C67.2349 181.608 67.6969 181.706 68.0889 181.888V181.762C68.0889 181.202 68.3269 180.796 68.9289 180.796H70.0069V181.776H68.6349V182.238C69.1529 182.686 69.4609 183.33 69.4609 184.1C69.4609 185.57 68.3829 186.592 66.7309 186.592C66.4929 186.592 66.2409 186.564 66.0309 186.522C65.5549 186.648 65.0789 186.886 65.0789 187.334C65.0789 187.768 65.5269 187.88 66.1849 187.88H67.7249C69.5169 187.88 70.2869 188.608 70.2869 189.798ZM69.2369 189.882C69.2369 189.308 68.8589 188.93 67.7389 188.93H65.3309C64.8689 189.14 64.6589 189.462 64.6589 189.91C64.6589 190.54 65.0929 191.058 66.2269 191.058H67.2629C68.5089 191.058 69.2369 190.666 69.2369 189.882ZM66.7309 185.696C67.6829 185.696 68.2849 185.248 68.2849 184.296V183.904C68.2849 182.952 67.6829 182.504 66.7309 182.504C65.7789 182.504 65.1769 182.952 65.1769 183.904V184.296C65.1769 185.248 65.7789 185.696 66.7309 185.696ZM74.7494 189H73.3494C72.5794 189 72.1594 188.51 72.1594 187.81V182.756H70.9694V181.776H71.6414C72.1174 181.776 72.2714 181.608 72.2714 181.118V179.774H73.2794V181.776H74.8614V182.756H73.2794V188.02H74.7494V189ZM79.4969 189.168C77.5649 189.168 76.2349 187.684 76.2349 185.388C76.2349 183.092 77.5649 181.608 79.4969 181.608C81.4289 181.608 82.7589 183.092 82.7589 185.388C82.7589 187.684 81.4289 189.168 79.4969 189.168ZM79.4969 188.174C80.7009 188.174 81.5549 187.432 81.5549 185.906V184.87C81.5549 183.344 80.7009 182.602 79.4969 182.602C78.2929 182.602 77.4389 183.344 77.4389 184.87V185.906C77.4389 187.432 78.2929 188.174 79.4969 188.174ZM85.8809 189H84.7609V181.776H85.8809V182.952H85.9369C86.2869 182.14 86.9029 181.608 87.9809 181.608C89.4649 181.608 90.4029 182.616 90.4029 184.366V189H89.2829V184.562C89.2829 183.274 88.7229 182.616 87.6449 182.616C86.7489 182.616 85.8809 183.064 85.8809 183.988V189ZM96.4585 189V179.228H99.7345C102.17 179.228 103.738 180.852 103.738 184.114C103.738 187.376 102.17 189 99.7345 189H96.4585ZM97.6345 187.964H99.7345C101.344 187.964 102.478 186.844 102.478 184.912V183.316C102.478 181.384 101.344 180.264 99.7345 180.264H97.6345V187.964ZM109.455 189.168C106.991 189.168 105.521 187.432 105.521 184.17C105.521 180.908 106.991 179.06 109.455 179.06C111.079 179.06 112.199 179.844 112.815 181.202L111.863 181.776C111.471 180.768 110.659 180.11 109.455 180.11C107.775 180.11 106.781 181.44 106.781 183.442V184.898C106.781 186.9 107.775 188.118 109.455 188.118C110.701 188.118 111.555 187.418 111.947 186.354L112.885 186.942C112.269 188.314 111.079 189.168 109.455 189.168ZM118.195 184.632C118.195 181.93 119.301 179.578 120.729 178.36H121.793C120.239 179.76 119.245 182.084 119.245 184.044V185.248C119.245 187.208 120.281 189.574 121.793 190.918H120.729C119.343 189.742 118.195 187.362 118.195 184.632ZM127.524 189V187.824H127.468C127.188 188.51 126.642 189.168 125.438 189.168C123.954 189.168 123.002 188.16 123.002 186.41V181.776H124.122V186.214C124.122 187.502 124.696 188.16 125.774 188.16C126.656 188.16 127.524 187.726 127.524 186.774V181.776H128.644V189H127.524ZM133.359 189.168C132.029 189.168 131.147 188.608 130.503 187.754L131.301 187.11C131.861 187.81 132.533 188.216 133.443 188.216C134.395 188.216 134.955 187.782 134.955 187.04C134.955 186.48 134.647 186.046 133.695 185.906L133.121 185.822C131.791 185.626 130.797 185.08 130.797 183.736C130.797 182.308 131.903 181.608 133.373 181.608C134.535 181.608 135.305 182.042 135.893 182.77L135.151 183.442C134.829 182.994 134.213 182.56 133.289 182.56C132.365 182.56 131.875 182.994 131.875 183.68C131.875 184.38 132.365 184.66 133.261 184.8L133.821 184.884C135.417 185.122 136.033 185.822 136.033 186.914C136.033 188.314 135.011 189.168 133.359 189.168ZM141.465 185.346H137.811V184.142H141.465V185.346ZM146.64 189.168C144.68 189.168 143.392 187.684 143.392 185.388C143.392 183.092 144.68 181.608 146.64 181.608C148.572 181.608 149.762 183.092 149.762 185.136V185.668H144.568V186.004C144.568 187.25 145.366 188.188 146.71 188.188C147.62 188.188 148.32 187.74 148.698 186.942L149.496 187.516C149.034 188.496 147.998 189.168 146.64 189.168ZM146.64 182.546C145.422 182.546 144.568 183.47 144.568 184.73V184.828H148.558V184.674C148.558 183.4 147.788 182.546 146.64 182.546ZM157.647 189H157.017C156.191 189 155.855 188.496 155.771 187.824H155.701C155.393 188.706 154.623 189.168 153.615 189.168C152.089 189.168 151.193 188.328 151.193 186.984C151.193 185.626 152.173 184.87 154.273 184.87H155.701V184.156C155.701 183.134 155.141 182.574 153.993 182.574C153.125 182.574 152.551 182.994 152.159 183.652L151.487 183.022C151.879 182.252 152.747 181.608 154.049 181.608C155.785 181.608 156.821 182.518 156.821 184.044V188.02H157.647V189ZM153.797 188.216C154.903 188.216 155.701 187.642 155.701 186.9V185.71H154.217C152.943 185.71 152.369 186.102 152.369 186.802V187.096C152.369 187.81 152.929 188.216 153.797 188.216ZM161.576 189.168C160.246 189.168 159.364 188.608 158.72 187.754L159.518 187.11C160.078 187.81 160.75 188.216 161.66 188.216C162.612 188.216 163.172 187.782 163.172 187.04C163.172 186.48 162.864 186.046 161.912 185.906L161.338 185.822C160.008 185.626 159.014 185.08 159.014 183.736C159.014 182.308 160.12 181.608 161.59 181.608C162.752 181.608 163.522 182.042 164.11 182.77L163.368 183.442C163.046 182.994 162.43 182.56 161.506 182.56C160.582 182.56 160.092 182.994 160.092 183.68C160.092 184.38 160.582 184.66 161.478 184.8L162.038 184.884C163.634 185.122 164.25 185.822 164.25 186.914C164.25 188.314 163.228 189.168 161.576 189.168ZM169.288 189H167.888C167.118 189 166.698 188.51 166.698 187.81V182.756H165.508V181.776H166.18C166.656 181.776 166.81 181.608 166.81 181.118V179.774H167.818V181.776H169.4V182.756H167.818V188.02H169.288V189Z" fill="#161616"/>
</g>
<rect width="16" height="16" transform="translate(466 176)" fill="white" style="mix-blend-mode:multiply"/>
<path d="M474 187L469 182L469.7 181.3L474 185.6L478.3 181.3L479 182L474 187Z" fill="#161616"/>
</g>
<defs>
<filter id="filter0_i_8_89602" x="0" y="76" width="498" height="40" filterUnits="userSpaceOnUse" color-interpolation-filters="sRGB">
<feFlood flood-opacity="0" result="BackgroundImageFix"/>
<feBlend mode="normal" in="SourceGraphic" in2="BackgroundImageFix" result="shape"/>
<feColorMatrix in="SourceAlpha" type="matrix" values="0 0 0 0 0 0 0 0 0 0 0 0 0 0 0 0 0 0 127 0" result="hardAlpha"/>
<feOffset dy="-1"/>
<feComposite in2="hardAlpha" operator="arithmetic" k2="-1" k3="1"/>
<feColorMatrix type="matrix" values="0 0 0 0 0.552941 0 0 0 0 0.552941 0 0 0 0 0.552941 0 0 0 1 0"/>
<feBlend mode="normal" in2="shape" result="effect1_innerShadow_8_89602"/>
</filter>
<filter id="filter1_i_8_89602" x="0" y="164" width="498" height="40" filterUnits="userSpaceOnUse" color-interpolation-filters="sRGB">
<feFlood flood-opacity="0" result="BackgroundImageFix"/>
<feBlend mode="normal" in="SourceGraphic" in2="BackgroundImageFix" result="shape"/>
<feColorMatrix in="SourceAlpha" type="matrix" values="0 0 0 0 0 0 0 0 0 0 0 0 0 0 0 0 0 0 127 0" result="hardAlpha"/>
<feOffset dy="-1"/>
<feComposite in2="hardAlpha" operator="arithmetic" k2="-1" k3="1"/>
<feColorMatrix type="matrix" values="0 0 0 0 0.552941 0 0 0 0 0.552941 0 0 0 0 0.552941 0 0 0 1 0"/>
<feBlend mode="normal" in2="shape" result="effect1_innerShadow_8_89602"/>
</filter>
<clipPath id="clip0_8_89602">
<rect width="466" height="18" fill="white" transform="translate(16 87)"/>
</clipPath>
<clipPath id="clip1_8_89602">
<rect width="434" height="18" fill="white" transform="translate(16 175)"/>
</clipPath>
</defs>
</svg>
